<mxfile host="65bd71144e">
    <diagram id="9h2JYtKhRVMtq_xXQFUE" name="Page-1">
        <mxGraphModel dx="2678" dy="832" grid="0" gridSize="10" guides="0" tooltips="1" connect="1" arrows="1" fold="1" page="1" pageScale="1" pageWidth="850" pageHeight="1100" math="0" shadow="0">
            <root>
                <mxCell id="0"/>
                <mxCell id="1" parent="0"/>
                <mxCell id="703" value="" style="shape=partialRectangle;whiteSpace=wrap;html=1;;top=0;fillColor=green;routingCenterX=-0.5;fontSize=14;" parent="1" vertex="1">
                    <mxGeometry x="-1672.6352941176472" y="286.5744680851064" width="786.635294117647" height="743.2223037417461" as="geometry"/>
                </mxCell>
                <mxCell id="693" value="" style="shape=partialRectangle;whiteSpace=wrap;html=1;bottom=1;right=1;left=1;top=0;fillColor=blue;routingCenterX=-0.5;fontSize=14;" parent="1" vertex="1">
                    <mxGeometry x="-1616.4470588235295" y="677.2802641232576" width="655.529411764706" height="293.7637564196625" as="geometry"/>
                </mxCell>
                <mxCell id="691" value="" style="shape=partialRectangle;whiteSpace=wrap;html=1;bottom=1;right=1;left=1;top=0;fillColor=#663300;routingCenterX=-0.5;fontSize=14;" parent="1" vertex="1">
                    <mxGeometry x="-1541.5294117647059" y="736.03301540719" width="505.6941176470589" height="176.2582538517975" as="geometry"/>
                </mxCell>
                <mxCell id="706" value="" style="shape=partialRectangle;whiteSpace=wrap;html=1;bottom=1;right=1;left=1;top=0;fillColor=#0D0600;routingCenterX=-0.5;fontSize=14;" parent="1" vertex="1">
                    <mxGeometry x="-1513" y="802" width="430.69" height="51.26" as="geometry"/>
                </mxCell>
                <mxCell id="697" value="" style="shape=partialRectangle;whiteSpace=wrap;html=1;bottom=1;right=1;left=1;top=0;fillColor=#CC00CC;routingCenterX=-0.5;fontSize=14;" parent="1" vertex="1">
                    <mxGeometry x="-1616.4470588235295" y="581.8070432868672" width="655.529411764706" height="36.720469552457814" as="geometry"/>
                </mxCell>
                <mxCell id="701" value="" style="shape=partialRectangle;whiteSpace=wrap;html=1;bottom=1;right=1;left=1;top=0;fillColor=red;routingCenterX=-0.5;fontSize=14;" parent="1" vertex="1">
                    <mxGeometry x="-1616.4470588235295" y="349.7336757153338" width="655.529411764706" height="180.66471019809245" as="geometry"/>
                </mxCell>
                <mxCell id="700" value="" style="shape=partialRectangle;whiteSpace=wrap;html=1;bottom=1;right=1;left=1;top=0;fillColor=#009999;routingCenterX=-0.5;fontSize=14;" parent="1" vertex="1">
                    <mxGeometry x="-1541.5294117647059" y="494.4123257520176" width="505.6941176470589" height="31.579603815113718" as="geometry"/>
                </mxCell>
                <mxCell id="698" value="" style="shape=partialRectangle;whiteSpace=wrap;html=1;bottom=1;right=1;left=1;top=0;fillColor=#663300;routingCenterX=-0.5;fontSize=14;" parent="1" vertex="1">
                    <mxGeometry x="-1541.5294117647059" y="379.11005135730005" width="505.6941176470589" height="88.12912692589875" as="geometry"/>
                </mxCell>
                <mxCell id="2" value="&lt;font style=&quot;font-size: 18px;&quot;&gt;Stack_b&lt;/font&gt;" style="shape=ext;double=1;rounded=0;whiteSpace=wrap;html=1;" parent="1" vertex="1">
                    <mxGeometry x="320" y="320" width="120" height="80" as="geometry"/>
                </mxCell>
                <mxCell id="8" value="&lt;font style=&quot;font-size: 18px;&quot;&gt;Stack_a&lt;/font&gt;" style="shape=ext;double=1;rounded=0;whiteSpace=wrap;html=1;" parent="1" vertex="1">
                    <mxGeometry x="120" y="320" width="120" height="80" as="geometry"/>
                </mxCell>
                <mxCell id="10" value="&lt;font style=&quot;font-size: 18px;&quot;&gt;options&lt;br&gt;for push to b&lt;br&gt;&lt;/font&gt;" style="shape=ext;double=1;rounded=0;whiteSpace=wrap;html=1;" parent="1" vertex="1">
                    <mxGeometry x="520" y="320" width="120" height="80" as="geometry"/>
                </mxCell>
                <mxCell id="12" value="&lt;font style=&quot;font-size: 18px;&quot;&gt;max operations&lt;br&gt;&lt;/font&gt;" style="shape=ext;double=1;rounded=0;whiteSpace=wrap;html=1;" parent="1" vertex="1">
                    <mxGeometry x="640" y="320" width="120" height="80" as="geometry"/>
                </mxCell>
                <mxCell id="18" value="&lt;font style=&quot;font-size: 18px;&quot;&gt;neccessarry&lt;br&gt;operations&lt;/font&gt;" style="shape=ext;double=1;rounded=0;whiteSpace=wrap;html=1;" parent="1" vertex="1">
                    <mxGeometry x="760" y="320" width="200" height="80" as="geometry"/>
                </mxCell>
                <mxCell id="20" value="&lt;span style=&quot;font-size: 18px;&quot;&gt;end state&lt;/span&gt;" style="shape=ext;double=1;rounded=0;whiteSpace=wrap;html=1;" parent="1" vertex="1">
                    <mxGeometry x="960" y="320" width="200" height="80" as="geometry"/>
                </mxCell>
                <mxCell id="46" value="4" style="shape=ext;double=1;rounded=0;whiteSpace=wrap;html=1;fontSize=18;" parent="1" vertex="1">
                    <mxGeometry x="320" y="480" width="120" height="40" as="geometry"/>
                </mxCell>
                <mxCell id="47" value="6" style="shape=ext;double=1;rounded=0;whiteSpace=wrap;html=1;fontSize=18;" parent="1" vertex="1">
                    <mxGeometry x="320" y="640" width="120" height="40" as="geometry"/>
                </mxCell>
                <mxCell id="48" value="3" style="shape=ext;double=1;rounded=0;whiteSpace=wrap;html=1;fontSize=18;" parent="1" vertex="1">
                    <mxGeometry x="320" y="520" width="120" height="40" as="geometry"/>
                </mxCell>
                <mxCell id="49" value="2" style="shape=ext;double=1;rounded=0;whiteSpace=wrap;html=1;fontSize=18;" parent="1" vertex="1">
                    <mxGeometry x="320" y="560" width="120" height="40" as="geometry"/>
                </mxCell>
                <mxCell id="50" value="1" style="shape=ext;double=1;rounded=0;whiteSpace=wrap;html=1;fontSize=18;" parent="1" vertex="1">
                    <mxGeometry x="320" y="600" width="120" height="40" as="geometry"/>
                </mxCell>
                <mxCell id="51" value="5" style="shape=ext;double=1;rounded=0;whiteSpace=wrap;html=1;fontSize=18;" parent="1" vertex="1">
                    <mxGeometry x="-202" y="533" width="120" height="40" as="geometry"/>
                </mxCell>
                <mxCell id="52" value="5_last" style="shape=ext;double=1;rounded=0;whiteSpace=wrap;html=1;fontSize=18;" parent="1" vertex="1">
                    <mxGeometry x="520" y="480" width="120" height="40" as="geometry"/>
                </mxCell>
                <mxCell id="53" value="2" style="shape=ext;double=1;rounded=0;whiteSpace=wrap;html=1;fontSize=18;" parent="1" vertex="1">
                    <mxGeometry x="640" y="480" width="120" height="40" as="geometry"/>
                </mxCell>
                <mxCell id="54" value="5_five" style="shape=ext;double=1;rounded=0;whiteSpace=wrap;html=1;fontSize=18;" parent="1" vertex="1">
                    <mxGeometry x="520" y="520" width="120" height="40" as="geometry"/>
                </mxCell>
                <mxCell id="55" value="3" style="shape=ext;double=1;rounded=0;whiteSpace=wrap;html=1;fontSize=18;" parent="1" vertex="1">
                    <mxGeometry x="640" y="520" width="120" height="40" as="geometry"/>
                </mxCell>
                <mxCell id="56" value="5_second" style="shape=ext;double=1;rounded=0;whiteSpace=wrap;html=1;fontSize=18;" parent="1" vertex="1">
                    <mxGeometry x="520" y="637" width="120" height="40" as="geometry"/>
                </mxCell>
                <mxCell id="57" value="2" style="shape=ext;double=1;rounded=0;whiteSpace=wrap;html=1;fontSize=18;" parent="1" vertex="1">
                    <mxGeometry x="640" y="637" width="120" height="40" as="geometry"/>
                </mxCell>
                <mxCell id="58" value="pb, rb" style="shape=ext;double=1;rounded=0;whiteSpace=wrap;html=1;fontSize=18;" parent="1" vertex="1">
                    <mxGeometry x="760" y="480" width="200" height="40" as="geometry"/>
                </mxCell>
                <mxCell id="59" value="4-3-2-1-6-5" style="shape=ext;double=1;rounded=0;whiteSpace=wrap;html=1;fontSize=18;" parent="1" vertex="1">
                    <mxGeometry x="960" y="480" width="200" height="40" as="geometry"/>
                </mxCell>
                <mxCell id="60" value="pb, rb, rb" style="shape=ext;double=1;rounded=0;whiteSpace=wrap;html=1;fontSize=18;" parent="1" vertex="1">
                    <mxGeometry x="760" y="520" width="200" height="40" as="geometry"/>
                </mxCell>
                <mxCell id="61" value="3-2-1-6-5-4" style="shape=ext;double=1;rounded=0;whiteSpace=wrap;html=1;fontSize=18;" parent="1" vertex="1">
                    <mxGeometry x="960" y="520" width="200" height="40" as="geometry"/>
                </mxCell>
                <mxCell id="62" value="pb, rrb" style="shape=ext;double=1;rounded=0;whiteSpace=wrap;html=1;fontSize=18;" parent="1" vertex="1">
                    <mxGeometry x="760" y="637" width="200" height="40" as="geometry"/>
                </mxCell>
                <mxCell id="63" value="6-5-4-3-2-1" style="shape=ext;double=1;rounded=0;whiteSpace=wrap;html=1;fontSize=18;" parent="1" vertex="1">
                    <mxGeometry x="960" y="637" width="200" height="40" as="geometry"/>
                </mxCell>
                <mxCell id="64" value="5_fourth" style="shape=ext;double=1;rounded=0;whiteSpace=wrap;html=1;fontSize=18;" parent="1" vertex="1">
                    <mxGeometry x="520" y="557" width="120" height="40" as="geometry"/>
                </mxCell>
                <mxCell id="65" value="4" style="shape=ext;double=1;rounded=0;whiteSpace=wrap;html=1;fontSize=18;" parent="1" vertex="1">
                    <mxGeometry x="640" y="557" width="120" height="40" as="geometry"/>
                </mxCell>
                <mxCell id="66" value="2-1-6-5-4-3" style="shape=ext;double=1;rounded=0;whiteSpace=wrap;html=1;fontSize=18;" parent="1" vertex="1">
                    <mxGeometry x="960" y="557" width="200" height="40" as="geometry"/>
                </mxCell>
                <mxCell id="67" value="5_first" style="shape=ext;double=1;rounded=0;whiteSpace=wrap;html=1;fontSize=18;" parent="1" vertex="1">
                    <mxGeometry x="520" y="677" width="120" height="40" as="geometry"/>
                </mxCell>
                <mxCell id="68" value="1" style="shape=ext;double=1;rounded=0;whiteSpace=wrap;html=1;fontSize=18;" parent="1" vertex="1">
                    <mxGeometry x="640" y="677" width="120" height="40" as="geometry"/>
                </mxCell>
                <mxCell id="69" value="pb" style="shape=ext;double=1;rounded=0;whiteSpace=wrap;html=1;fontSize=18;" parent="1" vertex="1">
                    <mxGeometry x="760" y="677" width="200" height="40" as="geometry"/>
                </mxCell>
                <mxCell id="70" value="5-4-3-2-1-6" style="shape=ext;double=1;rounded=0;whiteSpace=wrap;html=1;fontSize=18;" parent="1" vertex="1">
                    <mxGeometry x="960" y="677" width="200" height="40" as="geometry"/>
                </mxCell>
                <mxCell id="71" value="5_third" style="shape=ext;double=1;rounded=0;whiteSpace=wrap;html=1;fontSize=18;" parent="1" vertex="1">
                    <mxGeometry x="520" y="597" width="120" height="40" as="geometry"/>
                </mxCell>
                <mxCell id="72" value="3" style="shape=ext;double=1;rounded=0;whiteSpace=wrap;html=1;fontSize=18;" parent="1" vertex="1">
                    <mxGeometry x="640" y="597" width="120" height="40" as="geometry"/>
                </mxCell>
                <mxCell id="73" value="1-6-5-4-3-2" style="shape=ext;double=1;rounded=0;whiteSpace=wrap;html=1;fontSize=18;" parent="1" vertex="1">
                    <mxGeometry x="960" y="597" width="200" height="40" as="geometry"/>
                </mxCell>
                <mxCell id="74" value="pb, rrb. rrb" style="shape=ext;double=1;rounded=0;whiteSpace=wrap;html=1;fontSize=18;" parent="1" vertex="1">
                    <mxGeometry x="760" y="597" width="200" height="40" as="geometry"/>
                </mxCell>
                <mxCell id="75" value="pb, rb, rb, rb" style="shape=ext;double=1;rounded=0;whiteSpace=wrap;html=1;fontSize=18;" parent="1" vertex="1">
                    <mxGeometry x="760" y="557" width="200" height="40" as="geometry"/>
                </mxCell>
                <mxCell id="76" value="6" style="shape=ext;double=1;rounded=0;whiteSpace=wrap;html=1;fontSize=18;" parent="1" vertex="1">
                    <mxGeometry x="320" y="760" width="120" height="40" as="geometry"/>
                </mxCell>
                <mxCell id="77" value="1" style="shape=ext;double=1;rounded=0;whiteSpace=wrap;html=1;fontSize=18;" parent="1" vertex="1">
                    <mxGeometry x="320" y="920" width="120" height="40" as="geometry"/>
                </mxCell>
                <mxCell id="78" value="4" style="shape=ext;double=1;rounded=0;whiteSpace=wrap;html=1;fontSize=18;" parent="1" vertex="1">
                    <mxGeometry x="320" y="800" width="120" height="40" as="geometry"/>
                </mxCell>
                <mxCell id="79" value="3" style="shape=ext;double=1;rounded=0;whiteSpace=wrap;html=1;fontSize=18;" parent="1" vertex="1">
                    <mxGeometry x="320" y="840" width="120" height="40" as="geometry"/>
                </mxCell>
                <mxCell id="80" value="2" style="shape=ext;double=1;rounded=0;whiteSpace=wrap;html=1;fontSize=18;" parent="1" vertex="1">
                    <mxGeometry x="320" y="880" width="120" height="40" as="geometry"/>
                </mxCell>
                <mxCell id="81" value="5" style="shape=ext;double=1;rounded=0;whiteSpace=wrap;html=1;fontSize=18;" parent="1" vertex="1">
                    <mxGeometry x="120" y="920" width="120" height="40" as="geometry"/>
                </mxCell>
                <mxCell id="82" value="5_last" style="shape=ext;double=1;rounded=0;whiteSpace=wrap;html=1;fontSize=18;" parent="1" vertex="1">
                    <mxGeometry x="520" y="760" width="120" height="40" as="geometry"/>
                </mxCell>
                <mxCell id="83" value="3" style="shape=ext;double=1;rounded=0;whiteSpace=wrap;html=1;fontSize=18;" parent="1" vertex="1">
                    <mxGeometry x="640" y="760" width="120" height="40" as="geometry"/>
                </mxCell>
                <mxCell id="84" value="5_five" style="shape=ext;double=1;rounded=0;whiteSpace=wrap;html=1;fontSize=18;" parent="1" vertex="1">
                    <mxGeometry x="520" y="800" width="120" height="40" as="geometry"/>
                </mxCell>
                <mxCell id="85" value="4" style="shape=ext;double=1;rounded=0;whiteSpace=wrap;html=1;fontSize=18;" parent="1" vertex="1">
                    <mxGeometry x="640" y="800" width="120" height="40" as="geometry"/>
                </mxCell>
                <mxCell id="86" value="5_second" style="shape=ext;double=1;rounded=0;whiteSpace=wrap;html=1;fontSize=18;" parent="1" vertex="1">
                    <mxGeometry x="520" y="917" width="120" height="40" as="geometry"/>
                </mxCell>
                <mxCell id="87" value="2" style="shape=ext;double=1;rounded=0;whiteSpace=wrap;html=1;fontSize=18;" parent="1" vertex="1">
                    <mxGeometry x="640" y="917" width="120" height="40" as="geometry"/>
                </mxCell>
                <mxCell id="88" value="rb, pb, rb" style="shape=ext;double=1;rounded=0;whiteSpace=wrap;html=1;fontSize=18;" parent="1" vertex="1">
                    <mxGeometry x="760" y="760" width="200" height="40" as="geometry"/>
                </mxCell>
                <mxCell id="89" value="4-3-2-1-6-5" style="shape=ext;double=1;rounded=0;whiteSpace=wrap;html=1;fontSize=18;" parent="1" vertex="1">
                    <mxGeometry x="960" y="760" width="200" height="40" as="geometry"/>
                </mxCell>
                <mxCell id="90" value="rb, pb, rb, rb" style="shape=ext;double=1;rounded=0;whiteSpace=wrap;html=1;fontSize=18;" parent="1" vertex="1">
                    <mxGeometry x="760" y="800" width="200" height="40" as="geometry"/>
                </mxCell>
                <mxCell id="91" value="3-2-1-6-5-4" style="shape=ext;double=1;rounded=0;whiteSpace=wrap;html=1;fontSize=18;" parent="1" vertex="1">
                    <mxGeometry x="960" y="800" width="200" height="40" as="geometry"/>
                </mxCell>
                <mxCell id="92" value="pb, sb" style="shape=ext;double=1;rounded=0;whiteSpace=wrap;html=1;fontSize=18;" parent="1" vertex="1">
                    <mxGeometry x="760" y="917" width="200" height="40" as="geometry"/>
                </mxCell>
                <mxCell id="93" value="6-5-4-3-2-1" style="shape=ext;double=1;rounded=0;whiteSpace=wrap;html=1;fontSize=18;" parent="1" vertex="1">
                    <mxGeometry x="960" y="917" width="200" height="40" as="geometry"/>
                </mxCell>
                <mxCell id="94" value="5_fourth" style="shape=ext;double=1;rounded=0;whiteSpace=wrap;html=1;fontSize=18;" parent="1" vertex="1">
                    <mxGeometry x="520" y="837" width="120" height="40" as="geometry"/>
                </mxCell>
                <mxCell id="95" value="4" style="shape=ext;double=1;rounded=0;whiteSpace=wrap;html=1;fontSize=18;" parent="1" vertex="1">
                    <mxGeometry x="640" y="837" width="120" height="40" as="geometry"/>
                </mxCell>
                <mxCell id="96" value="2-1-6-5-4-3" style="shape=ext;double=1;rounded=0;whiteSpace=wrap;html=1;fontSize=18;" parent="1" vertex="1">
                    <mxGeometry x="960" y="837" width="200" height="40" as="geometry"/>
                </mxCell>
                <mxCell id="97" value="5_first" style="shape=ext;double=1;rounded=0;whiteSpace=wrap;html=1;fontSize=18;" parent="1" vertex="1">
                    <mxGeometry x="520" y="957" width="120" height="40" as="geometry"/>
                </mxCell>
                <mxCell id="98" value="1" style="shape=ext;double=1;rounded=0;whiteSpace=wrap;html=1;fontSize=18;" parent="1" vertex="1">
                    <mxGeometry x="640" y="957" width="120" height="40" as="geometry"/>
                </mxCell>
                <mxCell id="99" value="rb, pb" style="shape=ext;double=1;rounded=0;whiteSpace=wrap;html=1;fontSize=18;" parent="1" vertex="1">
                    <mxGeometry x="760" y="957" width="200" height="40" as="geometry"/>
                </mxCell>
                <mxCell id="100" value="5-4-3-2-1-6" style="shape=ext;double=1;rounded=0;whiteSpace=wrap;html=1;fontSize=18;" parent="1" vertex="1">
                    <mxGeometry x="960" y="957" width="200" height="40" as="geometry"/>
                </mxCell>
                <mxCell id="101" value="5_third" style="shape=ext;double=1;rounded=0;whiteSpace=wrap;html=1;fontSize=18;" parent="1" vertex="1">
                    <mxGeometry x="520" y="877" width="120" height="40" as="geometry"/>
                </mxCell>
                <mxCell id="102" value="3" style="shape=ext;double=1;rounded=0;whiteSpace=wrap;html=1;fontSize=18;" parent="1" vertex="1">
                    <mxGeometry x="640" y="877" width="120" height="40" as="geometry"/>
                </mxCell>
                <mxCell id="103" value="1-6-5-4-3-2" style="shape=ext;double=1;rounded=0;whiteSpace=wrap;html=1;fontSize=18;" parent="1" vertex="1">
                    <mxGeometry x="960" y="877" width="200" height="40" as="geometry"/>
                </mxCell>
                <mxCell id="104" value="pb, sb, rrb" style="shape=ext;double=1;rounded=0;whiteSpace=wrap;html=1;fontSize=18;" parent="1" vertex="1">
                    <mxGeometry x="760" y="877" width="200" height="40" as="geometry"/>
                </mxCell>
                <mxCell id="105" value="pb, sb, rrb, rrb" style="shape=ext;double=1;rounded=0;whiteSpace=wrap;html=1;fontSize=18;" parent="1" vertex="1">
                    <mxGeometry x="760" y="837" width="200" height="40" as="geometry"/>
                </mxCell>
                <mxCell id="137" value="1" style="shape=ext;double=1;rounded=0;whiteSpace=wrap;html=1;fontSize=18;" parent="1" vertex="1">
                    <mxGeometry x="320" y="1040" width="120" height="40" as="geometry"/>
                </mxCell>
                <mxCell id="138" value="2" style="shape=ext;double=1;rounded=0;whiteSpace=wrap;html=1;fontSize=18;" parent="1" vertex="1">
                    <mxGeometry x="320" y="1200" width="120" height="40" as="geometry"/>
                </mxCell>
                <mxCell id="139" value="6" style="shape=ext;double=1;rounded=0;whiteSpace=wrap;html=1;fontSize=18;" parent="1" vertex="1">
                    <mxGeometry x="320" y="1080" width="120" height="40" as="geometry"/>
                </mxCell>
                <mxCell id="140" value="4" style="shape=ext;double=1;rounded=0;whiteSpace=wrap;html=1;fontSize=18;" parent="1" vertex="1">
                    <mxGeometry x="320" y="1120" width="120" height="40" as="geometry"/>
                </mxCell>
                <mxCell id="141" value="3" style="shape=ext;double=1;rounded=0;whiteSpace=wrap;html=1;fontSize=18;" parent="1" vertex="1">
                    <mxGeometry x="320" y="1160" width="120" height="40" as="geometry"/>
                </mxCell>
                <mxCell id="142" value="5" style="shape=ext;double=1;rounded=0;whiteSpace=wrap;html=1;fontSize=18;" parent="1" vertex="1">
                    <mxGeometry x="120" y="1200" width="120" height="40" as="geometry"/>
                </mxCell>
                <mxCell id="143" value="5_last" style="shape=ext;double=1;rounded=0;whiteSpace=wrap;html=1;fontSize=18;" parent="1" vertex="1">
                    <mxGeometry x="520" y="1040" width="120" height="40" as="geometry"/>
                </mxCell>
                <mxCell id="144" value="4" style="shape=ext;double=1;rounded=0;whiteSpace=wrap;html=1;fontSize=18;" parent="1" vertex="1">
                    <mxGeometry x="640" y="1040" width="120" height="40" as="geometry"/>
                </mxCell>
                <mxCell id="145" value="5_five" style="shape=ext;double=1;rounded=0;whiteSpace=wrap;html=1;fontSize=18;" parent="1" vertex="1">
                    <mxGeometry x="520" y="1080" width="120" height="40" as="geometry"/>
                </mxCell>
                <mxCell id="146" value="5" style="shape=ext;double=1;rounded=0;whiteSpace=wrap;html=1;fontSize=18;" parent="1" vertex="1">
                    <mxGeometry x="640" y="1080" width="120" height="40" as="geometry"/>
                </mxCell>
                <mxCell id="147" value="5_second" style="shape=ext;double=1;rounded=0;whiteSpace=wrap;html=1;fontSize=18;" parent="1" vertex="1">
                    <mxGeometry x="520" y="1197" width="120" height="40" as="geometry"/>
                </mxCell>
                <mxCell id="148" value="3" style="shape=ext;double=1;rounded=0;whiteSpace=wrap;html=1;fontSize=18;" parent="1" vertex="1">
                    <mxGeometry x="640" y="1197" width="120" height="40" as="geometry"/>
                </mxCell>
                <mxCell id="149" value="rb, rb, pb, rb" style="shape=ext;double=1;rounded=0;whiteSpace=wrap;html=1;fontSize=18;" parent="1" vertex="1">
                    <mxGeometry x="760" y="1040" width="200" height="40" as="geometry"/>
                </mxCell>
                <mxCell id="150" value="4-3-2-1-6-5" style="shape=ext;double=1;rounded=0;whiteSpace=wrap;html=1;fontSize=18;" parent="1" vertex="1">
                    <mxGeometry x="960" y="1040" width="200" height="40" as="geometry"/>
                </mxCell>
                <mxCell id="151" value="rrb, rrb, rrb, pb, rb, rb" style="shape=ext;double=1;rounded=0;whiteSpace=wrap;html=1;fontSize=18;" parent="1" vertex="1">
                    <mxGeometry x="760" y="1080" width="200" height="40" as="geometry"/>
                </mxCell>
                <mxCell id="152" value="3-2-1-6-5-4" style="shape=ext;double=1;rounded=0;whiteSpace=wrap;html=1;fontSize=18;" parent="1" vertex="1">
                    <mxGeometry x="960" y="1080" width="200" height="40" as="geometry"/>
                </mxCell>
                <mxCell id="153" value="rb, pb, sb" style="shape=ext;double=1;rounded=0;whiteSpace=wrap;html=1;fontSize=18;" parent="1" vertex="1">
                    <mxGeometry x="760" y="1197" width="200" height="40" as="geometry"/>
                </mxCell>
                <mxCell id="154" value="6-5-4-3-2-1" style="shape=ext;double=1;rounded=0;whiteSpace=wrap;html=1;fontSize=18;" parent="1" vertex="1">
                    <mxGeometry x="960" y="1197" width="200" height="40" as="geometry"/>
                </mxCell>
                <mxCell id="155" value="5_fourth" style="shape=ext;double=1;rounded=0;whiteSpace=wrap;html=1;fontSize=18;" parent="1" vertex="1">
                    <mxGeometry x="520" y="1117" width="120" height="40" as="geometry"/>
                </mxCell>
                <mxCell id="156" value="2-1-6-5-4-3" style="shape=ext;double=1;rounded=0;whiteSpace=wrap;html=1;fontSize=18;" parent="1" vertex="1">
                    <mxGeometry x="960" y="1117" width="200" height="40" as="geometry"/>
                </mxCell>
                <mxCell id="157" value="5_first" style="shape=ext;double=1;rounded=0;whiteSpace=wrap;html=1;fontSize=18;" parent="1" vertex="1">
                    <mxGeometry x="520" y="1237" width="120" height="40" as="geometry"/>
                </mxCell>
                <mxCell id="158" value="2" style="shape=ext;double=1;rounded=0;whiteSpace=wrap;html=1;fontSize=18;" parent="1" vertex="1">
                    <mxGeometry x="640" y="1237" width="120" height="40" as="geometry"/>
                </mxCell>
                <mxCell id="159" value="rb, rb, pb" style="shape=ext;double=1;rounded=0;whiteSpace=wrap;html=1;fontSize=18;" parent="1" vertex="1">
                    <mxGeometry x="760" y="1237" width="200" height="40" as="geometry"/>
                </mxCell>
                <mxCell id="160" value="5-4-3-2-1-6" style="shape=ext;double=1;rounded=0;whiteSpace=wrap;html=1;fontSize=18;" parent="1" vertex="1">
                    <mxGeometry x="960" y="1237" width="200" height="40" as="geometry"/>
                </mxCell>
                <mxCell id="161" value="5_third" style="shape=ext;double=1;rounded=0;whiteSpace=wrap;html=1;fontSize=18;" parent="1" vertex="1">
                    <mxGeometry x="520" y="1157" width="120" height="40" as="geometry"/>
                </mxCell>
                <mxCell id="162" value="4" style="shape=ext;double=1;rounded=0;whiteSpace=wrap;html=1;fontSize=18;" parent="1" vertex="1">
                    <mxGeometry x="640" y="1157" width="120" height="40" as="geometry"/>
                </mxCell>
                <mxCell id="163" value="1-6-5-4-3-2" style="shape=ext;double=1;rounded=0;whiteSpace=wrap;html=1;fontSize=18;" parent="1" vertex="1">
                    <mxGeometry x="960" y="1157" width="200" height="40" as="geometry"/>
                </mxCell>
                <mxCell id="164" value="rb, pb, sb, rrb" style="shape=ext;double=1;rounded=0;whiteSpace=wrap;html=1;fontSize=18;" parent="1" vertex="1">
                    <mxGeometry x="759" y="1158" width="200" height="40" as="geometry"/>
                </mxCell>
                <mxCell id="165" value="rrb, rrb, pb, rb, rb, rb" style="shape=ext;double=1;rounded=0;whiteSpace=wrap;html=1;fontSize=18;" parent="1" vertex="1">
                    <mxGeometry x="760" y="1117" width="200" height="40" as="geometry"/>
                </mxCell>
                <mxCell id="166" value="6" style="shape=ext;double=1;rounded=0;whiteSpace=wrap;html=1;fontSize=18;" parent="1" vertex="1">
                    <mxGeometry x="640" y="1120" width="120" height="40" as="geometry"/>
                </mxCell>
                <mxCell id="197" value="1" style="shape=ext;double=1;rounded=0;whiteSpace=wrap;html=1;fontSize=18;" parent="1" vertex="1">
                    <mxGeometry x="319" y="1360" width="120" height="40" as="geometry"/>
                </mxCell>
                <mxCell id="198" value="2" style="shape=ext;double=1;rounded=0;whiteSpace=wrap;html=1;fontSize=18;" parent="1" vertex="1">
                    <mxGeometry x="319" y="1320" width="120" height="40" as="geometry"/>
                </mxCell>
                <mxCell id="199" value="6" style="shape=ext;double=1;rounded=0;whiteSpace=wrap;html=1;fontSize=18;" parent="1" vertex="1">
                    <mxGeometry x="319" y="1400" width="120" height="40" as="geometry"/>
                </mxCell>
                <mxCell id="200" value="4" style="shape=ext;double=1;rounded=0;whiteSpace=wrap;html=1;fontSize=18;" parent="1" vertex="1">
                    <mxGeometry x="319" y="1440" width="120" height="40" as="geometry"/>
                </mxCell>
                <mxCell id="201" value="3" style="shape=ext;double=1;rounded=0;whiteSpace=wrap;html=1;fontSize=18;" parent="1" vertex="1">
                    <mxGeometry x="319" y="1480" width="120" height="40" as="geometry"/>
                </mxCell>
                <mxCell id="202" value="5" style="shape=ext;double=1;rounded=0;whiteSpace=wrap;html=1;fontSize=18;" parent="1" vertex="1">
                    <mxGeometry x="119" y="1480" width="120" height="40" as="geometry"/>
                </mxCell>
                <mxCell id="203" value="5_last" style="shape=ext;double=1;rounded=0;whiteSpace=wrap;html=1;fontSize=18;" parent="1" vertex="1">
                    <mxGeometry x="519" y="1320" width="120" height="40" as="geometry"/>
                </mxCell>
                <mxCell id="204" value="4" style="shape=ext;double=1;rounded=0;whiteSpace=wrap;html=1;fontSize=18;" parent="1" vertex="1">
                    <mxGeometry x="639" y="1320" width="120" height="40" as="geometry"/>
                </mxCell>
                <mxCell id="205" value="5_five" style="shape=ext;double=1;rounded=0;whiteSpace=wrap;html=1;fontSize=18;" parent="1" vertex="1">
                    <mxGeometry x="519" y="1360" width="120" height="40" as="geometry"/>
                </mxCell>
                <mxCell id="206" value="5" style="shape=ext;double=1;rounded=0;whiteSpace=wrap;html=1;fontSize=18;" parent="1" vertex="1">
                    <mxGeometry x="639" y="1360" width="120" height="40" as="geometry"/>
                </mxCell>
                <mxCell id="207" value="5_second" style="shape=ext;double=1;rounded=0;whiteSpace=wrap;html=1;fontSize=18;" parent="1" vertex="1">
                    <mxGeometry x="519" y="1477" width="120" height="40" as="geometry"/>
                </mxCell>
                <mxCell id="208" value="4" style="shape=ext;double=1;rounded=0;whiteSpace=wrap;html=1;fontSize=18;" parent="1" vertex="1">
                    <mxGeometry x="639" y="1477" width="120" height="40" as="geometry"/>
                </mxCell>
                <mxCell id="209" value="rrb, rrb, pb, rb" style="shape=ext;double=1;rounded=0;whiteSpace=wrap;html=1;fontSize=18;" parent="1" vertex="1">
                    <mxGeometry x="759" y="1320" width="200" height="40" as="geometry"/>
                </mxCell>
                <mxCell id="210" value="4-3-2-1-6-5" style="shape=ext;double=1;rounded=0;whiteSpace=wrap;html=1;fontSize=18;" parent="1" vertex="1">
                    <mxGeometry x="959" y="1320" width="200" height="40" as="geometry"/>
                </mxCell>
                <mxCell id="211" value="rrb, rrb, pb, rb, rb" style="shape=ext;double=1;rounded=0;whiteSpace=wrap;html=1;fontSize=18;" parent="1" vertex="1">
                    <mxGeometry x="759" y="1360" width="200" height="40" as="geometry"/>
                </mxCell>
                <mxCell id="212" value="3-2-1-6-5-4" style="shape=ext;double=1;rounded=0;whiteSpace=wrap;html=1;fontSize=18;" parent="1" vertex="1">
                    <mxGeometry x="959" y="1360" width="200" height="40" as="geometry"/>
                </mxCell>
                <mxCell id="213" value="rb, rb, pb, sb" style="shape=ext;double=1;rounded=0;whiteSpace=wrap;html=1;fontSize=18;" parent="1" vertex="1">
                    <mxGeometry x="759" y="1477" width="200" height="40" as="geometry"/>
                </mxCell>
                <mxCell id="214" value="6-5-4-3-2-1" style="shape=ext;double=1;rounded=0;whiteSpace=wrap;html=1;fontSize=18;" parent="1" vertex="1">
                    <mxGeometry x="959" y="1477" width="200" height="40" as="geometry"/>
                </mxCell>
                <mxCell id="215" value="5_fourth" style="shape=ext;double=1;rounded=0;whiteSpace=wrap;html=1;fontSize=18;" parent="1" vertex="1">
                    <mxGeometry x="519" y="1397" width="120" height="40" as="geometry"/>
                </mxCell>
                <mxCell id="216" value="6" style="shape=ext;double=1;rounded=0;whiteSpace=wrap;html=1;fontSize=18;" parent="1" vertex="1">
                    <mxGeometry x="639" y="1397" width="120" height="40" as="geometry"/>
                </mxCell>
                <mxCell id="217" value="1-2-6-5-4-3" style="shape=ext;double=1;rounded=0;whiteSpace=wrap;html=1;fontSize=18;" parent="1" vertex="1">
                    <mxGeometry x="959" y="1397" width="200" height="40" as="geometry"/>
                </mxCell>
                <mxCell id="218" value="5_first" style="shape=ext;double=1;rounded=0;whiteSpace=wrap;html=1;fontSize=18;" parent="1" vertex="1">
                    <mxGeometry x="519" y="1517" width="120" height="40" as="geometry"/>
                </mxCell>
                <mxCell id="219" value="3" style="shape=ext;double=1;rounded=0;whiteSpace=wrap;html=1;fontSize=18;" parent="1" vertex="1">
                    <mxGeometry x="639" y="1517" width="120" height="40" as="geometry"/>
                </mxCell>
                <mxCell id="220" value="rrb, rrb, pb" style="shape=ext;double=1;rounded=0;whiteSpace=wrap;html=1;fontSize=18;" parent="1" vertex="1">
                    <mxGeometry x="759" y="1517" width="200" height="40" as="geometry"/>
                </mxCell>
                <mxCell id="221" value="5-4-3-2-1-6" style="shape=ext;double=1;rounded=0;whiteSpace=wrap;html=1;fontSize=18;" parent="1" vertex="1">
                    <mxGeometry x="959" y="1517" width="200" height="40" as="geometry"/>
                </mxCell>
                <mxCell id="222" value="5_third" style="shape=ext;double=1;rounded=0;whiteSpace=wrap;html=1;fontSize=18;" parent="1" vertex="1">
                    <mxGeometry x="519" y="1437" width="120" height="40" as="geometry"/>
                </mxCell>
                <mxCell id="223" value="5" style="shape=ext;double=1;rounded=0;whiteSpace=wrap;html=1;fontSize=18;" parent="1" vertex="1">
                    <mxGeometry x="639" y="1437" width="120" height="40" as="geometry"/>
                </mxCell>
                <mxCell id="224" value="1-6-5-4-3-2" style="shape=ext;double=1;rounded=0;whiteSpace=wrap;html=1;fontSize=18;" parent="1" vertex="1">
                    <mxGeometry x="959" y="1437" width="200" height="40" as="geometry"/>
                </mxCell>
                <mxCell id="225" value="rb, rb, pb, sb, rrb" style="shape=ext;double=1;rounded=0;whiteSpace=wrap;html=1;fontSize=18;" parent="1" vertex="1">
                    <mxGeometry x="759" y="1437" width="200" height="40" as="geometry"/>
                </mxCell>
                <mxCell id="226" value="rb, rb, pb, sb, rrb, rrb" style="shape=ext;double=1;rounded=0;whiteSpace=wrap;html=1;fontSize=18;" parent="1" vertex="1">
                    <mxGeometry x="759" y="1397" width="200" height="40" as="geometry"/>
                </mxCell>
                <mxCell id="227" value="4" style="shape=ext;double=1;rounded=0;whiteSpace=wrap;html=1;fontSize=18;" parent="1" vertex="1">
                    <mxGeometry x="320" y="1760" width="120" height="40" as="geometry"/>
                </mxCell>
                <mxCell id="228" value="6" style="shape=ext;double=1;rounded=0;whiteSpace=wrap;html=1;fontSize=18;" parent="1" vertex="1">
                    <mxGeometry x="320" y="1720" width="120" height="40" as="geometry"/>
                </mxCell>
                <mxCell id="229" value="3" style="shape=ext;double=1;rounded=0;whiteSpace=wrap;html=1;fontSize=18;" parent="1" vertex="1">
                    <mxGeometry x="320" y="1600" width="120" height="40" as="geometry"/>
                </mxCell>
                <mxCell id="230" value="2" style="shape=ext;double=1;rounded=0;whiteSpace=wrap;html=1;fontSize=18;" parent="1" vertex="1">
                    <mxGeometry x="320" y="1640" width="120" height="40" as="geometry"/>
                </mxCell>
                <mxCell id="231" value="1" style="shape=ext;double=1;rounded=0;whiteSpace=wrap;html=1;fontSize=18;" parent="1" vertex="1">
                    <mxGeometry x="320" y="1680" width="120" height="40" as="geometry"/>
                </mxCell>
                <mxCell id="232" value="5" style="shape=ext;double=1;rounded=0;whiteSpace=wrap;html=1;fontSize=18;" parent="1" vertex="1">
                    <mxGeometry x="119" y="1760" width="120" height="40" as="geometry"/>
                </mxCell>
                <mxCell id="233" value="5_last" style="shape=ext;double=1;rounded=0;whiteSpace=wrap;html=1;fontSize=18;" parent="1" vertex="1">
                    <mxGeometry x="519" y="1600" width="120" height="40" as="geometry"/>
                </mxCell>
                <mxCell id="234" value="3" style="shape=ext;double=1;rounded=0;whiteSpace=wrap;html=1;fontSize=18;" parent="1" vertex="1">
                    <mxGeometry x="639" y="1600" width="120" height="40" as="geometry"/>
                </mxCell>
                <mxCell id="235" value="5_five" style="shape=ext;double=1;rounded=0;whiteSpace=wrap;html=1;fontSize=18;" parent="1" vertex="1">
                    <mxGeometry x="519" y="1640" width="120" height="40" as="geometry"/>
                </mxCell>
                <mxCell id="236" value="4" style="shape=ext;double=1;rounded=0;whiteSpace=wrap;html=1;fontSize=18;" parent="1" vertex="1">
                    <mxGeometry x="639" y="1640" width="120" height="40" as="geometry"/>
                </mxCell>
                <mxCell id="237" value="5_second" style="shape=ext;double=1;rounded=0;whiteSpace=wrap;html=1;fontSize=18;" parent="1" vertex="1">
                    <mxGeometry x="519" y="1757" width="120" height="40" as="geometry"/>
                </mxCell>
                <mxCell id="238" value="3" style="shape=ext;double=1;rounded=0;whiteSpace=wrap;html=1;fontSize=18;" parent="1" vertex="1">
                    <mxGeometry x="639" y="1757" width="120" height="40" as="geometry"/>
                </mxCell>
                <mxCell id="239" value="rrb, pb, rb" style="shape=ext;double=1;rounded=0;whiteSpace=wrap;html=1;fontSize=18;" parent="1" vertex="1">
                    <mxGeometry x="759" y="1600" width="200" height="40" as="geometry"/>
                </mxCell>
                <mxCell id="240" value="4-3-2-1-6-5" style="shape=ext;double=1;rounded=0;whiteSpace=wrap;html=1;fontSize=18;" parent="1" vertex="1">
                    <mxGeometry x="959" y="1600" width="200" height="40" as="geometry"/>
                </mxCell>
                <mxCell id="241" value="rrb, pb, rb, rb" style="shape=ext;double=1;rounded=0;whiteSpace=wrap;html=1;fontSize=18;" parent="1" vertex="1">
                    <mxGeometry x="759" y="1640" width="200" height="40" as="geometry"/>
                </mxCell>
                <mxCell id="242" value="3-2-1-6-5-4" style="shape=ext;double=1;rounded=0;whiteSpace=wrap;html=1;fontSize=18;" parent="1" vertex="1">
                    <mxGeometry x="959" y="1640" width="200" height="40" as="geometry"/>
                </mxCell>
                <mxCell id="243" value="rrb, pb, rrb" style="shape=ext;double=1;rounded=0;whiteSpace=wrap;html=1;fontSize=18;" parent="1" vertex="1">
                    <mxGeometry x="759" y="1757" width="200" height="40" as="geometry"/>
                </mxCell>
                <mxCell id="244" value="6-5-4-3-2-1" style="shape=ext;double=1;rounded=0;whiteSpace=wrap;html=1;fontSize=18;" parent="1" vertex="1">
                    <mxGeometry x="959" y="1757" width="200" height="40" as="geometry"/>
                </mxCell>
                <mxCell id="245" value="5_fourth" style="shape=ext;double=1;rounded=0;whiteSpace=wrap;html=1;fontSize=18;" parent="1" vertex="1">
                    <mxGeometry x="519" y="1677" width="120" height="40" as="geometry"/>
                </mxCell>
                <mxCell id="246" value="6" style="shape=ext;double=1;rounded=0;whiteSpace=wrap;html=1;fontSize=18;" parent="1" vertex="1">
                    <mxGeometry x="639" y="1677" width="120" height="40" as="geometry"/>
                </mxCell>
                <mxCell id="247" value="1-2-6-5-4-3" style="shape=ext;double=1;rounded=0;whiteSpace=wrap;html=1;fontSize=18;" parent="1" vertex="1">
                    <mxGeometry x="959" y="1677" width="200" height="40" as="geometry"/>
                </mxCell>
                <mxCell id="248" value="5_first" style="shape=ext;double=1;rounded=0;whiteSpace=wrap;html=1;fontSize=18;" parent="1" vertex="1">
                    <mxGeometry x="519" y="1797" width="120" height="40" as="geometry"/>
                </mxCell>
                <mxCell id="249" value="2" style="shape=ext;double=1;rounded=0;whiteSpace=wrap;html=1;fontSize=18;" parent="1" vertex="1">
                    <mxGeometry x="639" y="1797" width="120" height="40" as="geometry"/>
                </mxCell>
                <mxCell id="250" value="rrb, pb" style="shape=ext;double=1;rounded=0;whiteSpace=wrap;html=1;fontSize=18;" parent="1" vertex="1">
                    <mxGeometry x="759" y="1797" width="200" height="40" as="geometry"/>
                </mxCell>
                <mxCell id="251" value="5-4-3-2-1-6" style="shape=ext;double=1;rounded=0;whiteSpace=wrap;html=1;fontSize=18;" parent="1" vertex="1">
                    <mxGeometry x="959" y="1797" width="200" height="40" as="geometry"/>
                </mxCell>
                <mxCell id="252" value="5_third" style="shape=ext;double=1;rounded=0;whiteSpace=wrap;html=1;fontSize=18;" parent="1" vertex="1">
                    <mxGeometry x="519" y="1717" width="120" height="40" as="geometry"/>
                </mxCell>
                <mxCell id="253" value="4" style="shape=ext;double=1;rounded=0;whiteSpace=wrap;html=1;fontSize=18;" parent="1" vertex="1">
                    <mxGeometry x="639" y="1717" width="120" height="40" as="geometry"/>
                </mxCell>
                <mxCell id="254" value="1-6-5-4-3-2" style="shape=ext;double=1;rounded=0;whiteSpace=wrap;html=1;fontSize=18;" parent="1" vertex="1">
                    <mxGeometry x="959" y="1717" width="200" height="40" as="geometry"/>
                </mxCell>
                <mxCell id="255" value="rrb, pb, rrb, rrb&amp;nbsp;" style="shape=ext;double=1;rounded=0;whiteSpace=wrap;html=1;fontSize=18;" parent="1" vertex="1">
                    <mxGeometry x="759" y="1717" width="200" height="40" as="geometry"/>
                </mxCell>
                <mxCell id="256" value="rrb, pb, rb, rb, rb" style="shape=ext;double=1;rounded=0;whiteSpace=wrap;html=1;fontSize=18;" parent="1" vertex="1">
                    <mxGeometry x="759" y="1677" width="200" height="40" as="geometry"/>
                </mxCell>
                <mxCell id="257" value="&lt;font style=&quot;font-size: 18px;&quot;&gt;Stack_b&lt;/font&gt;" style="shape=ext;double=1;rounded=0;whiteSpace=wrap;html=1;" parent="1" vertex="1">
                    <mxGeometry x="1440" y="320" width="120" height="80" as="geometry"/>
                </mxCell>
                <mxCell id="258" value="&lt;font style=&quot;font-size: 18px;&quot;&gt;Stack_a&lt;/font&gt;" style="shape=ext;double=1;rounded=0;whiteSpace=wrap;html=1;" parent="1" vertex="1">
                    <mxGeometry x="1240" y="320" width="120" height="80" as="geometry"/>
                </mxCell>
                <mxCell id="259" value="&lt;font style=&quot;font-size: 18px;&quot;&gt;options&lt;br&gt;for push to b&lt;br&gt;&lt;/font&gt;" style="shape=ext;double=1;rounded=0;whiteSpace=wrap;html=1;" parent="1" vertex="1">
                    <mxGeometry x="1640" y="320" width="120" height="80" as="geometry"/>
                </mxCell>
                <mxCell id="260" value="&lt;font style=&quot;font-size: 18px;&quot;&gt;max operations&lt;br&gt;&lt;/font&gt;" style="shape=ext;double=1;rounded=0;whiteSpace=wrap;html=1;" parent="1" vertex="1">
                    <mxGeometry x="1760" y="320" width="120" height="80" as="geometry"/>
                </mxCell>
                <mxCell id="261" value="&lt;font style=&quot;font-size: 18px;&quot;&gt;neccessarry&lt;br&gt;operations&lt;/font&gt;" style="shape=ext;double=1;rounded=0;whiteSpace=wrap;html=1;" parent="1" vertex="1">
                    <mxGeometry x="1880" y="320" width="200" height="80" as="geometry"/>
                </mxCell>
                <mxCell id="262" value="&lt;span style=&quot;font-size: 18px;&quot;&gt;end state&lt;/span&gt;" style="shape=ext;double=1;rounded=0;whiteSpace=wrap;html=1;" parent="1" vertex="1">
                    <mxGeometry x="2080" y="320" width="200" height="80" as="geometry"/>
                </mxCell>
                <mxCell id="263" value="6" style="shape=ext;double=1;rounded=0;whiteSpace=wrap;html=1;fontSize=18;" parent="1" vertex="1">
                    <mxGeometry x="1440" y="480" width="120" height="40" as="geometry"/>
                </mxCell>
                <mxCell id="264" value="2" style="shape=ext;double=1;rounded=0;whiteSpace=wrap;html=1;fontSize=18;" parent="1" vertex="1">
                    <mxGeometry x="1440" y="640" width="120" height="40" as="geometry"/>
                </mxCell>
                <mxCell id="265" value="5" style="shape=ext;double=1;rounded=0;whiteSpace=wrap;html=1;fontSize=18;" parent="1" vertex="1">
                    <mxGeometry x="1440" y="520" width="120" height="40" as="geometry"/>
                </mxCell>
                <mxCell id="266" value="4" style="shape=ext;double=1;rounded=0;whiteSpace=wrap;html=1;fontSize=18;" parent="1" vertex="1">
                    <mxGeometry x="1440" y="560" width="120" height="40" as="geometry"/>
                </mxCell>
                <mxCell id="267" value="3" style="shape=ext;double=1;rounded=0;whiteSpace=wrap;html=1;fontSize=18;" parent="1" vertex="1">
                    <mxGeometry x="1440" y="600" width="120" height="40" as="geometry"/>
                </mxCell>
                <mxCell id="268" value="1" style="shape=ext;double=1;rounded=0;whiteSpace=wrap;html=1;fontSize=18;" parent="1" vertex="1">
                    <mxGeometry x="1260" y="797" width="120" height="40" as="geometry"/>
                </mxCell>
                <mxCell id="269" value="1_last" style="shape=ext;double=1;rounded=0;whiteSpace=wrap;html=1;fontSize=18;" parent="1" vertex="1">
                    <mxGeometry x="1640" y="480" width="120" height="40" as="geometry"/>
                </mxCell>
                <mxCell id="270" value="2" style="shape=ext;double=1;rounded=0;whiteSpace=wrap;html=1;fontSize=18;" parent="1" vertex="1">
                    <mxGeometry x="1760" y="480" width="120" height="40" as="geometry"/>
                </mxCell>
                <mxCell id="271" value="1_five" style="shape=ext;double=1;rounded=0;whiteSpace=wrap;html=1;fontSize=18;" parent="1" vertex="1">
                    <mxGeometry x="1640" y="520" width="120" height="40" as="geometry"/>
                </mxCell>
                <mxCell id="272" value="3" style="shape=ext;double=1;rounded=0;whiteSpace=wrap;html=1;fontSize=18;" parent="1" vertex="1">
                    <mxGeometry x="1760" y="520" width="120" height="40" as="geometry"/>
                </mxCell>
                <mxCell id="273" value="1_second" style="shape=ext;double=1;rounded=0;whiteSpace=wrap;html=1;fontSize=18;" parent="1" vertex="1">
                    <mxGeometry x="1640" y="637" width="120" height="40" as="geometry"/>
                </mxCell>
                <mxCell id="274" value="2" style="shape=ext;double=1;rounded=0;whiteSpace=wrap;html=1;fontSize=18;" parent="1" vertex="1">
                    <mxGeometry x="1760" y="637" width="120" height="40" as="geometry"/>
                </mxCell>
                <mxCell id="275" value="pb, rb" style="shape=ext;double=1;rounded=0;whiteSpace=wrap;html=1;fontSize=18;" parent="1" vertex="1">
                    <mxGeometry x="1880" y="480" width="200" height="40" as="geometry"/>
                </mxCell>
                <mxCell id="276" value="6-5-4-3-2-1" style="shape=ext;double=1;rounded=0;whiteSpace=wrap;html=1;fontSize=18;" parent="1" vertex="1">
                    <mxGeometry x="2080" y="480" width="200" height="40" as="geometry"/>
                </mxCell>
                <mxCell id="277" value="pb, rb, rb" style="shape=ext;double=1;rounded=0;whiteSpace=wrap;html=1;fontSize=18;" parent="1" vertex="1">
                    <mxGeometry x="1880" y="520" width="200" height="40" as="geometry"/>
                </mxCell>
                <mxCell id="278" value="5-4-3-2-1-6" style="shape=ext;double=1;rounded=0;whiteSpace=wrap;html=1;fontSize=18;" parent="1" vertex="1">
                    <mxGeometry x="2080" y="520" width="200" height="40" as="geometry"/>
                </mxCell>
                <mxCell id="279" value="pb, rb" style="shape=ext;double=1;rounded=0;whiteSpace=wrap;html=1;fontSize=18;" parent="1" vertex="1">
                    <mxGeometry x="1880" y="637" width="200" height="40" as="geometry"/>
                </mxCell>
                <mxCell id="280" value="2-1-6-5-4-3" style="shape=ext;double=1;rounded=0;whiteSpace=wrap;html=1;fontSize=18;" parent="1" vertex="1">
                    <mxGeometry x="2080" y="637" width="200" height="40" as="geometry"/>
                </mxCell>
                <mxCell id="281" value="1_fourth" style="shape=ext;double=1;rounded=0;whiteSpace=wrap;html=1;fontSize=18;" parent="1" vertex="1">
                    <mxGeometry x="1640" y="557" width="120" height="40" as="geometry"/>
                </mxCell>
                <mxCell id="282" value="4" style="shape=ext;double=1;rounded=0;whiteSpace=wrap;html=1;fontSize=18;" parent="1" vertex="1">
                    <mxGeometry x="1760" y="557" width="120" height="40" as="geometry"/>
                </mxCell>
                <mxCell id="283" value="4-3-2-1-6-5" style="shape=ext;double=1;rounded=0;whiteSpace=wrap;html=1;fontSize=18;" parent="1" vertex="1">
                    <mxGeometry x="2080" y="560" width="200" height="40" as="geometry"/>
                </mxCell>
                <mxCell id="284" value="1_first" style="shape=ext;double=1;rounded=0;whiteSpace=wrap;html=1;fontSize=18;" parent="1" vertex="1">
                    <mxGeometry x="1640" y="677" width="120" height="40" as="geometry"/>
                </mxCell>
                <mxCell id="285" value="1" style="shape=ext;double=1;rounded=0;whiteSpace=wrap;html=1;fontSize=18;" parent="1" vertex="1">
                    <mxGeometry x="1760" y="677" width="120" height="40" as="geometry"/>
                </mxCell>
                <mxCell id="286" value="pb" style="shape=ext;double=1;rounded=0;whiteSpace=wrap;html=1;fontSize=18;" parent="1" vertex="1">
                    <mxGeometry x="1880" y="677" width="200" height="40" as="geometry"/>
                </mxCell>
                <mxCell id="287" value="1-6-5-4-3-2" style="shape=ext;double=1;rounded=0;whiteSpace=wrap;html=1;fontSize=18;" parent="1" vertex="1">
                    <mxGeometry x="2080" y="677" width="200" height="40" as="geometry"/>
                </mxCell>
                <mxCell id="288" value="1_third" style="shape=ext;double=1;rounded=0;whiteSpace=wrap;html=1;fontSize=18;" parent="1" vertex="1">
                    <mxGeometry x="1640" y="597" width="120" height="40" as="geometry"/>
                </mxCell>
                <mxCell id="289" value="3" style="shape=ext;double=1;rounded=0;whiteSpace=wrap;html=1;fontSize=18;" parent="1" vertex="1">
                    <mxGeometry x="1760" y="597" width="120" height="40" as="geometry"/>
                </mxCell>
                <mxCell id="290" value="3-2-1-6-5-4" style="shape=ext;double=1;rounded=0;whiteSpace=wrap;html=1;fontSize=18;" parent="1" vertex="1">
                    <mxGeometry x="2080" y="597" width="200" height="40" as="geometry"/>
                </mxCell>
                <mxCell id="291" value="pb, rrb, rrb" style="shape=ext;double=1;rounded=0;whiteSpace=wrap;html=1;fontSize=18;" parent="1" vertex="1">
                    <mxGeometry x="1880" y="597" width="200" height="40" as="geometry"/>
                </mxCell>
                <mxCell id="292" value="pb, rb, rb, rb" style="shape=ext;double=1;rounded=0;whiteSpace=wrap;html=1;fontSize=18;" parent="1" vertex="1">
                    <mxGeometry x="1880" y="557" width="200" height="40" as="geometry"/>
                </mxCell>
                <mxCell id="293" value="2" style="shape=ext;double=1;rounded=0;whiteSpace=wrap;html=1;fontSize=18;" parent="1" vertex="1">
                    <mxGeometry x="1440" y="760" width="120" height="40" as="geometry"/>
                </mxCell>
                <mxCell id="294" value="3" style="shape=ext;double=1;rounded=0;whiteSpace=wrap;html=1;fontSize=18;" parent="1" vertex="1">
                    <mxGeometry x="1440" y="920" width="120" height="40" as="geometry"/>
                </mxCell>
                <mxCell id="295" value="6" style="shape=ext;double=1;rounded=0;whiteSpace=wrap;html=1;fontSize=18;" parent="1" vertex="1">
                    <mxGeometry x="1440" y="800" width="120" height="40" as="geometry"/>
                </mxCell>
                <mxCell id="296" value="5" style="shape=ext;double=1;rounded=0;whiteSpace=wrap;html=1;fontSize=18;" parent="1" vertex="1">
                    <mxGeometry x="1440" y="840" width="120" height="40" as="geometry"/>
                </mxCell>
                <mxCell id="297" value="4" style="shape=ext;double=1;rounded=0;whiteSpace=wrap;html=1;fontSize=18;" parent="1" vertex="1">
                    <mxGeometry x="1440" y="880" width="120" height="40" as="geometry"/>
                </mxCell>
                <mxCell id="298" value="1" style="shape=ext;double=1;rounded=0;whiteSpace=wrap;html=1;fontSize=18;" parent="1" vertex="1">
                    <mxGeometry x="1240" y="920" width="120" height="40" as="geometry"/>
                </mxCell>
                <mxCell id="353" value="3" style="shape=ext;double=1;rounded=0;whiteSpace=wrap;html=1;fontSize=18;" parent="1" vertex="1">
                    <mxGeometry x="1440" y="1040" width="120" height="40" as="geometry"/>
                </mxCell>
                <mxCell id="354" value="4" style="shape=ext;double=1;rounded=0;whiteSpace=wrap;html=1;fontSize=18;" parent="1" vertex="1">
                    <mxGeometry x="1440" y="1200" width="120" height="40" as="geometry"/>
                </mxCell>
                <mxCell id="355" value="2" style="shape=ext;double=1;rounded=0;whiteSpace=wrap;html=1;fontSize=18;" parent="1" vertex="1">
                    <mxGeometry x="1440" y="1117" width="120" height="40" as="geometry"/>
                </mxCell>
                <mxCell id="356" value="6" style="shape=ext;double=1;rounded=0;whiteSpace=wrap;html=1;fontSize=18;" parent="1" vertex="1">
                    <mxGeometry x="1440" y="1080" width="120" height="40" as="geometry"/>
                </mxCell>
                <mxCell id="357" value="5" style="shape=ext;double=1;rounded=0;whiteSpace=wrap;html=1;fontSize=18;" parent="1" vertex="1">
                    <mxGeometry x="1440" y="1160" width="120" height="40" as="geometry"/>
                </mxCell>
                <mxCell id="358" value="1" style="shape=ext;double=1;rounded=0;whiteSpace=wrap;html=1;fontSize=18;" parent="1" vertex="1">
                    <mxGeometry x="1240" y="1200" width="120" height="40" as="geometry"/>
                </mxCell>
                <mxCell id="383" value="3" style="shape=ext;double=1;rounded=0;whiteSpace=wrap;html=1;fontSize=18;" parent="1" vertex="1">
                    <mxGeometry x="1439" y="1360" width="120" height="40" as="geometry"/>
                </mxCell>
                <mxCell id="384" value="4" style="shape=ext;double=1;rounded=0;whiteSpace=wrap;html=1;fontSize=18;" parent="1" vertex="1">
                    <mxGeometry x="1439" y="1320" width="120" height="40" as="geometry"/>
                </mxCell>
                <mxCell id="385" value="2" style="shape=ext;double=1;rounded=0;whiteSpace=wrap;html=1;fontSize=18;" parent="1" vertex="1">
                    <mxGeometry x="1439" y="1400" width="120" height="40" as="geometry"/>
                </mxCell>
                <mxCell id="386" value="6" style="shape=ext;double=1;rounded=0;whiteSpace=wrap;html=1;fontSize=18;" parent="1" vertex="1">
                    <mxGeometry x="1439" y="1440" width="120" height="40" as="geometry"/>
                </mxCell>
                <mxCell id="387" value="5" style="shape=ext;double=1;rounded=0;whiteSpace=wrap;html=1;fontSize=18;" parent="1" vertex="1">
                    <mxGeometry x="1439" y="1480" width="120" height="40" as="geometry"/>
                </mxCell>
                <mxCell id="388" value="1" style="shape=ext;double=1;rounded=0;whiteSpace=wrap;html=1;fontSize=18;" parent="1" vertex="1">
                    <mxGeometry x="1239" y="1480" width="120" height="40" as="geometry"/>
                </mxCell>
                <mxCell id="413" value="6" style="shape=ext;double=1;rounded=0;whiteSpace=wrap;html=1;fontSize=18;" parent="1" vertex="1">
                    <mxGeometry x="1440" y="1760" width="120" height="40" as="geometry"/>
                </mxCell>
                <mxCell id="414" value="2" style="shape=ext;double=1;rounded=0;whiteSpace=wrap;html=1;fontSize=18;" parent="1" vertex="1">
                    <mxGeometry x="1440" y="1720" width="120" height="40" as="geometry"/>
                </mxCell>
                <mxCell id="415" value="5" style="shape=ext;double=1;rounded=0;whiteSpace=wrap;html=1;fontSize=18;" parent="1" vertex="1">
                    <mxGeometry x="1440" y="1600" width="120" height="40" as="geometry"/>
                </mxCell>
                <mxCell id="416" value="4" style="shape=ext;double=1;rounded=0;whiteSpace=wrap;html=1;fontSize=18;" parent="1" vertex="1">
                    <mxGeometry x="1440" y="1640" width="120" height="40" as="geometry"/>
                </mxCell>
                <mxCell id="417" value="3" style="shape=ext;double=1;rounded=0;whiteSpace=wrap;html=1;fontSize=18;" parent="1" vertex="1">
                    <mxGeometry x="1440" y="1680" width="120" height="40" as="geometry"/>
                </mxCell>
                <mxCell id="418" value="1" style="shape=ext;double=1;rounded=0;whiteSpace=wrap;html=1;fontSize=18;" parent="1" vertex="1">
                    <mxGeometry x="1239" y="1760" width="120" height="40" as="geometry"/>
                </mxCell>
                <mxCell id="442" value="1_last" style="shape=ext;double=1;rounded=0;whiteSpace=wrap;html=1;fontSize=18;" parent="1" vertex="1">
                    <mxGeometry x="1640" y="760" width="120" height="40" as="geometry"/>
                </mxCell>
                <mxCell id="443" value="3" style="shape=ext;double=1;rounded=0;whiteSpace=wrap;html=1;fontSize=18;" parent="1" vertex="1">
                    <mxGeometry x="1760" y="760" width="120" height="40" as="geometry"/>
                </mxCell>
                <mxCell id="444" value="1_five" style="shape=ext;double=1;rounded=0;whiteSpace=wrap;html=1;fontSize=18;" parent="1" vertex="1">
                    <mxGeometry x="1640" y="800" width="120" height="40" as="geometry"/>
                </mxCell>
                <mxCell id="445" value="4" style="shape=ext;double=1;rounded=0;whiteSpace=wrap;html=1;fontSize=18;" parent="1" vertex="1">
                    <mxGeometry x="1760" y="800" width="120" height="40" as="geometry"/>
                </mxCell>
                <mxCell id="446" value="1_second" style="shape=ext;double=1;rounded=0;whiteSpace=wrap;html=1;fontSize=18;" parent="1" vertex="1">
                    <mxGeometry x="1640" y="917" width="120" height="40" as="geometry"/>
                </mxCell>
                <mxCell id="447" value="2" style="shape=ext;double=1;rounded=0;whiteSpace=wrap;html=1;fontSize=18;" parent="1" vertex="1">
                    <mxGeometry x="1760" y="917" width="120" height="40" as="geometry"/>
                </mxCell>
                <mxCell id="448" value="rb, pb, rb" style="shape=ext;double=1;rounded=0;whiteSpace=wrap;html=1;fontSize=18;" parent="1" vertex="1">
                    <mxGeometry x="1880" y="760" width="200" height="40" as="geometry"/>
                </mxCell>
                <mxCell id="450" value="rb, pb, rb, rb" style="shape=ext;double=1;rounded=0;whiteSpace=wrap;html=1;fontSize=18;" parent="1" vertex="1">
                    <mxGeometry x="1880" y="800" width="200" height="40" as="geometry"/>
                </mxCell>
                <mxCell id="452" value="pb, sb" style="shape=ext;double=1;rounded=0;whiteSpace=wrap;html=1;fontSize=18;" parent="1" vertex="1">
                    <mxGeometry x="1880" y="917" width="200" height="40" as="geometry"/>
                </mxCell>
                <mxCell id="454" value="1_fourth" style="shape=ext;double=1;rounded=0;whiteSpace=wrap;html=1;fontSize=18;" parent="1" vertex="1">
                    <mxGeometry x="1640" y="837" width="120" height="40" as="geometry"/>
                </mxCell>
                <mxCell id="455" value="4" style="shape=ext;double=1;rounded=0;whiteSpace=wrap;html=1;fontSize=18;" parent="1" vertex="1">
                    <mxGeometry x="1760" y="837" width="120" height="40" as="geometry"/>
                </mxCell>
                <mxCell id="457" value="1_first" style="shape=ext;double=1;rounded=0;whiteSpace=wrap;html=1;fontSize=18;" parent="1" vertex="1">
                    <mxGeometry x="1640" y="957" width="120" height="40" as="geometry"/>
                </mxCell>
                <mxCell id="458" value="2" style="shape=ext;double=1;rounded=0;whiteSpace=wrap;html=1;fontSize=18;" parent="1" vertex="1">
                    <mxGeometry x="1760" y="957" width="120" height="40" as="geometry"/>
                </mxCell>
                <mxCell id="459" value="rb, pb" style="shape=ext;double=1;rounded=0;whiteSpace=wrap;html=1;fontSize=18;" parent="1" vertex="1">
                    <mxGeometry x="1880" y="957" width="200" height="40" as="geometry"/>
                </mxCell>
                <mxCell id="461" value="1_third" style="shape=ext;double=1;rounded=0;whiteSpace=wrap;html=1;fontSize=18;" parent="1" vertex="1">
                    <mxGeometry x="1640" y="877" width="120" height="40" as="geometry"/>
                </mxCell>
                <mxCell id="462" value="3" style="shape=ext;double=1;rounded=0;whiteSpace=wrap;html=1;fontSize=18;" parent="1" vertex="1">
                    <mxGeometry x="1760" y="877" width="120" height="40" as="geometry"/>
                </mxCell>
                <mxCell id="464" value="pb, sb, rrb" style="shape=ext;double=1;rounded=0;whiteSpace=wrap;html=1;fontSize=18;" parent="1" vertex="1">
                    <mxGeometry x="1880" y="877" width="200" height="40" as="geometry"/>
                </mxCell>
                <mxCell id="465" value="pb, sb, rrb, rrb" style="shape=ext;double=1;rounded=0;whiteSpace=wrap;html=1;fontSize=18;" parent="1" vertex="1">
                    <mxGeometry x="1880" y="837" width="200" height="40" as="geometry"/>
                </mxCell>
                <mxCell id="466" value="1_last" style="shape=ext;double=1;rounded=0;whiteSpace=wrap;html=1;fontSize=18;" parent="1" vertex="1">
                    <mxGeometry x="1640" y="1040" width="120" height="40" as="geometry"/>
                </mxCell>
                <mxCell id="467" value="4" style="shape=ext;double=1;rounded=0;whiteSpace=wrap;html=1;fontSize=18;" parent="1" vertex="1">
                    <mxGeometry x="1760" y="1040" width="120" height="40" as="geometry"/>
                </mxCell>
                <mxCell id="468" value="1_five" style="shape=ext;double=1;rounded=0;whiteSpace=wrap;html=1;fontSize=18;" parent="1" vertex="1">
                    <mxGeometry x="1640" y="1080" width="120" height="40" as="geometry"/>
                </mxCell>
                <mxCell id="469" value="6" style="shape=ext;double=1;rounded=0;whiteSpace=wrap;html=1;fontSize=18;" parent="1" vertex="1">
                    <mxGeometry x="1760" y="1080" width="120" height="40" as="geometry"/>
                </mxCell>
                <mxCell id="470" value="1_second" style="shape=ext;double=1;rounded=0;whiteSpace=wrap;html=1;fontSize=18;" parent="1" vertex="1">
                    <mxGeometry x="1640" y="1197" width="120" height="40" as="geometry"/>
                </mxCell>
                <mxCell id="471" value="3" style="shape=ext;double=1;rounded=0;whiteSpace=wrap;html=1;fontSize=18;" parent="1" vertex="1">
                    <mxGeometry x="1760" y="1197" width="120" height="40" as="geometry"/>
                </mxCell>
                <mxCell id="472" value="rb, rb, pb, rb" style="shape=ext;double=1;rounded=0;whiteSpace=wrap;html=1;fontSize=18;" parent="1" vertex="1">
                    <mxGeometry x="1880" y="1040" width="200" height="40" as="geometry"/>
                </mxCell>
                <mxCell id="474" value="rrb, rrb, rrb, pb, rb, rb" style="shape=ext;double=1;rounded=0;whiteSpace=wrap;html=1;fontSize=18;" parent="1" vertex="1">
                    <mxGeometry x="1880" y="1080" width="200" height="40" as="geometry"/>
                </mxCell>
                <mxCell id="476" value="rb, pb, sb" style="shape=ext;double=1;rounded=0;whiteSpace=wrap;html=1;fontSize=18;" parent="1" vertex="1">
                    <mxGeometry x="1880" y="1197" width="200" height="40" as="geometry"/>
                </mxCell>
                <mxCell id="478" value="1_fourth" style="shape=ext;double=1;rounded=0;whiteSpace=wrap;html=1;fontSize=18;" parent="1" vertex="1">
                    <mxGeometry x="1640" y="1117" width="120" height="40" as="geometry"/>
                </mxCell>
                <mxCell id="479" value="6" style="shape=ext;double=1;rounded=0;whiteSpace=wrap;html=1;fontSize=18;" parent="1" vertex="1">
                    <mxGeometry x="1760" y="1117" width="120" height="40" as="geometry"/>
                </mxCell>
                <mxCell id="481" value="1_first" style="shape=ext;double=1;rounded=0;whiteSpace=wrap;html=1;fontSize=18;" parent="1" vertex="1">
                    <mxGeometry x="1640" y="1237" width="120" height="40" as="geometry"/>
                </mxCell>
                <mxCell id="482" value="3" style="shape=ext;double=1;rounded=0;whiteSpace=wrap;html=1;fontSize=18;" parent="1" vertex="1">
                    <mxGeometry x="1760" y="1237" width="120" height="40" as="geometry"/>
                </mxCell>
                <mxCell id="483" value="rb, rb, pb" style="shape=ext;double=1;rounded=0;whiteSpace=wrap;html=1;fontSize=18;" parent="1" vertex="1">
                    <mxGeometry x="1880" y="1237" width="200" height="40" as="geometry"/>
                </mxCell>
                <mxCell id="485" value="1_third" style="shape=ext;double=1;rounded=0;whiteSpace=wrap;html=1;fontSize=18;" parent="1" vertex="1">
                    <mxGeometry x="1640" y="1157" width="120" height="40" as="geometry"/>
                </mxCell>
                <mxCell id="486" value="4" style="shape=ext;double=1;rounded=0;whiteSpace=wrap;html=1;fontSize=18;" parent="1" vertex="1">
                    <mxGeometry x="1760" y="1157" width="120" height="40" as="geometry"/>
                </mxCell>
                <mxCell id="488" value="rb, pb, sb, rrb" style="shape=ext;double=1;rounded=0;whiteSpace=wrap;html=1;fontSize=18;" parent="1" vertex="1">
                    <mxGeometry x="1880" y="1157" width="200" height="40" as="geometry"/>
                </mxCell>
                <mxCell id="489" value="rrb, rrb, pb, rb, rb, rb" style="shape=ext;double=1;rounded=0;whiteSpace=wrap;html=1;fontSize=18;" parent="1" vertex="1">
                    <mxGeometry x="1880" y="1117" width="200" height="40" as="geometry"/>
                </mxCell>
                <mxCell id="490" value="1_last" style="shape=ext;double=1;rounded=0;whiteSpace=wrap;html=1;fontSize=18;" parent="1" vertex="1">
                    <mxGeometry x="1640" y="1600" width="120" height="40" as="geometry"/>
                </mxCell>
                <mxCell id="491" value="3" style="shape=ext;double=1;rounded=0;whiteSpace=wrap;html=1;fontSize=18;" parent="1" vertex="1">
                    <mxGeometry x="1760" y="1600" width="120" height="40" as="geometry"/>
                </mxCell>
                <mxCell id="492" value="1_five" style="shape=ext;double=1;rounded=0;whiteSpace=wrap;html=1;fontSize=18;" parent="1" vertex="1">
                    <mxGeometry x="1640" y="1640" width="120" height="40" as="geometry"/>
                </mxCell>
                <mxCell id="493" value="4" style="shape=ext;double=1;rounded=0;whiteSpace=wrap;html=1;fontSize=18;" parent="1" vertex="1">
                    <mxGeometry x="1760" y="1640" width="120" height="40" as="geometry"/>
                </mxCell>
                <mxCell id="494" value="1_second" style="shape=ext;double=1;rounded=0;whiteSpace=wrap;html=1;fontSize=18;" parent="1" vertex="1">
                    <mxGeometry x="1640" y="1757" width="120" height="40" as="geometry"/>
                </mxCell>
                <mxCell id="495" value="3" style="shape=ext;double=1;rounded=0;whiteSpace=wrap;html=1;fontSize=18;" parent="1" vertex="1">
                    <mxGeometry x="1760" y="1757" width="120" height="40" as="geometry"/>
                </mxCell>
                <mxCell id="496" value="rrb, pb, rb" style="shape=ext;double=1;rounded=0;whiteSpace=wrap;html=1;fontSize=18;" parent="1" vertex="1">
                    <mxGeometry x="1880" y="1600" width="200" height="40" as="geometry"/>
                </mxCell>
                <mxCell id="498" value="rrb, pb, rb, rb" style="shape=ext;double=1;rounded=0;whiteSpace=wrap;html=1;fontSize=18;" parent="1" vertex="1">
                    <mxGeometry x="1880" y="1640" width="200" height="40" as="geometry"/>
                </mxCell>
                <mxCell id="500" value="rrb, pb, rrb" style="shape=ext;double=1;rounded=0;whiteSpace=wrap;html=1;fontSize=18;" parent="1" vertex="1">
                    <mxGeometry x="1880" y="1757" width="200" height="40" as="geometry"/>
                </mxCell>
                <mxCell id="502" value="1_fourth" style="shape=ext;double=1;rounded=0;whiteSpace=wrap;html=1;fontSize=18;" parent="1" vertex="1">
                    <mxGeometry x="1640" y="1677" width="120" height="40" as="geometry"/>
                </mxCell>
                <mxCell id="503" value="5" style="shape=ext;double=1;rounded=0;whiteSpace=wrap;html=1;fontSize=18;" parent="1" vertex="1">
                    <mxGeometry x="1760" y="1677" width="120" height="40" as="geometry"/>
                </mxCell>
                <mxCell id="505" value="1_first" style="shape=ext;double=1;rounded=0;whiteSpace=wrap;html=1;fontSize=18;" parent="1" vertex="1">
                    <mxGeometry x="1640" y="1797" width="120" height="40" as="geometry"/>
                </mxCell>
                <mxCell id="506" value="2" style="shape=ext;double=1;rounded=0;whiteSpace=wrap;html=1;fontSize=18;" parent="1" vertex="1">
                    <mxGeometry x="1760" y="1797" width="120" height="40" as="geometry"/>
                </mxCell>
                <mxCell id="507" value="rrb, pb" style="shape=ext;double=1;rounded=0;whiteSpace=wrap;html=1;fontSize=18;" parent="1" vertex="1">
                    <mxGeometry x="1880" y="1797" width="200" height="40" as="geometry"/>
                </mxCell>
                <mxCell id="509" value="1_third" style="shape=ext;double=1;rounded=0;whiteSpace=wrap;html=1;fontSize=18;" parent="1" vertex="1">
                    <mxGeometry x="1640" y="1717" width="120" height="40" as="geometry"/>
                </mxCell>
                <mxCell id="513" value="rrb, pb, rb, rb, rb" style="shape=ext;double=1;rounded=0;whiteSpace=wrap;html=1;fontSize=18;" parent="1" vertex="1">
                    <mxGeometry x="1880" y="1677" width="200" height="40" as="geometry"/>
                </mxCell>
                <mxCell id="514" value="1_last" style="shape=ext;double=1;rounded=0;whiteSpace=wrap;html=1;fontSize=18;" parent="1" vertex="1">
                    <mxGeometry x="1640" y="1320" width="120" height="40" as="geometry"/>
                </mxCell>
                <mxCell id="515" value="4" style="shape=ext;double=1;rounded=0;whiteSpace=wrap;html=1;fontSize=18;" parent="1" vertex="1">
                    <mxGeometry x="1760" y="1320" width="120" height="40" as="geometry"/>
                </mxCell>
                <mxCell id="516" value="1_five" style="shape=ext;double=1;rounded=0;whiteSpace=wrap;html=1;fontSize=18;" parent="1" vertex="1">
                    <mxGeometry x="1640" y="1360" width="120" height="40" as="geometry"/>
                </mxCell>
                <mxCell id="517" value="5" style="shape=ext;double=1;rounded=0;whiteSpace=wrap;html=1;fontSize=18;" parent="1" vertex="1">
                    <mxGeometry x="1760" y="1360" width="120" height="40" as="geometry"/>
                </mxCell>
                <mxCell id="518" value="1_second" style="shape=ext;double=1;rounded=0;whiteSpace=wrap;html=1;fontSize=18;" parent="1" vertex="1">
                    <mxGeometry x="1640" y="1477" width="120" height="40" as="geometry"/>
                </mxCell>
                <mxCell id="519" value="4" style="shape=ext;double=1;rounded=0;whiteSpace=wrap;html=1;fontSize=18;" parent="1" vertex="1">
                    <mxGeometry x="1760" y="1477" width="120" height="40" as="geometry"/>
                </mxCell>
                <mxCell id="520" value="rrb, rrb, pb, rb" style="shape=ext;double=1;rounded=0;whiteSpace=wrap;html=1;fontSize=18;" parent="1" vertex="1">
                    <mxGeometry x="1880" y="1320" width="200" height="40" as="geometry"/>
                </mxCell>
                <mxCell id="522" value="rrb, rrb, pb, rb, rb" style="shape=ext;double=1;rounded=0;whiteSpace=wrap;html=1;fontSize=18;" parent="1" vertex="1">
                    <mxGeometry x="1880" y="1360" width="200" height="40" as="geometry"/>
                </mxCell>
                <mxCell id="524" value="rb, rb, pb, sb" style="shape=ext;double=1;rounded=0;whiteSpace=wrap;html=1;fontSize=18;" parent="1" vertex="1">
                    <mxGeometry x="1880" y="1477" width="200" height="40" as="geometry"/>
                </mxCell>
                <mxCell id="526" value="1_fourth" style="shape=ext;double=1;rounded=0;whiteSpace=wrap;html=1;fontSize=18;" parent="1" vertex="1">
                    <mxGeometry x="1640" y="1397" width="120" height="40" as="geometry"/>
                </mxCell>
                <mxCell id="527" value="6" style="shape=ext;double=1;rounded=0;whiteSpace=wrap;html=1;fontSize=18;" parent="1" vertex="1">
                    <mxGeometry x="1760" y="1397" width="120" height="40" as="geometry"/>
                </mxCell>
                <mxCell id="529" value="1_first" style="shape=ext;double=1;rounded=0;whiteSpace=wrap;html=1;fontSize=18;" parent="1" vertex="1">
                    <mxGeometry x="1640" y="1517" width="120" height="40" as="geometry"/>
                </mxCell>
                <mxCell id="530" value="3" style="shape=ext;double=1;rounded=0;whiteSpace=wrap;html=1;fontSize=18;" parent="1" vertex="1">
                    <mxGeometry x="1760" y="1517" width="120" height="40" as="geometry"/>
                </mxCell>
                <mxCell id="531" value="rrb, rrb, pb" style="shape=ext;double=1;rounded=0;whiteSpace=wrap;html=1;fontSize=18;" parent="1" vertex="1">
                    <mxGeometry x="1880" y="1517" width="200" height="40" as="geometry"/>
                </mxCell>
                <mxCell id="533" value="1_third" style="shape=ext;double=1;rounded=0;whiteSpace=wrap;html=1;fontSize=18;" parent="1" vertex="1">
                    <mxGeometry x="1640" y="1437" width="120" height="40" as="geometry"/>
                </mxCell>
                <mxCell id="534" value="5" style="shape=ext;double=1;rounded=0;whiteSpace=wrap;html=1;fontSize=18;" parent="1" vertex="1">
                    <mxGeometry x="1760" y="1437" width="120" height="40" as="geometry"/>
                </mxCell>
                <mxCell id="536" value="rb, rb, pb, sb, rrb" style="shape=ext;double=1;rounded=0;whiteSpace=wrap;html=1;fontSize=18;" parent="1" vertex="1">
                    <mxGeometry x="1880" y="1437" width="200" height="40" as="geometry"/>
                </mxCell>
                <mxCell id="537" value="rrb, rrb, pb, rb, rb, rb" style="shape=ext;double=1;rounded=0;whiteSpace=wrap;html=1;fontSize=18;" parent="1" vertex="1">
                    <mxGeometry x="1880" y="1397" width="200" height="40" as="geometry"/>
                </mxCell>
                <mxCell id="544" value="6-5-4-3-2-1" style="shape=ext;double=1;rounded=0;whiteSpace=wrap;html=1;fontSize=18;" parent="1" vertex="1">
                    <mxGeometry x="2080" y="760" width="200" height="40" as="geometry"/>
                </mxCell>
                <mxCell id="545" value="5-4-3-2-1-6" style="shape=ext;double=1;rounded=0;whiteSpace=wrap;html=1;fontSize=18;" parent="1" vertex="1">
                    <mxGeometry x="2080" y="800" width="200" height="40" as="geometry"/>
                </mxCell>
                <mxCell id="546" value="2-1-6-5-4-3" style="shape=ext;double=1;rounded=0;whiteSpace=wrap;html=1;fontSize=18;" parent="1" vertex="1">
                    <mxGeometry x="2080" y="917" width="200" height="40" as="geometry"/>
                </mxCell>
                <mxCell id="547" value="4-3-2-1-6-5" style="shape=ext;double=1;rounded=0;whiteSpace=wrap;html=1;fontSize=18;" parent="1" vertex="1">
                    <mxGeometry x="2080" y="840" width="200" height="40" as="geometry"/>
                </mxCell>
                <mxCell id="548" value="1-6-5-4-3-2" style="shape=ext;double=1;rounded=0;whiteSpace=wrap;html=1;fontSize=18;" parent="1" vertex="1">
                    <mxGeometry x="2080" y="957" width="200" height="40" as="geometry"/>
                </mxCell>
                <mxCell id="549" value="3-2-1-6-5-4" style="shape=ext;double=1;rounded=0;whiteSpace=wrap;html=1;fontSize=18;" parent="1" vertex="1">
                    <mxGeometry x="2080" y="877" width="200" height="40" as="geometry"/>
                </mxCell>
                <mxCell id="550" value="6-5-4-3-2-1" style="shape=ext;double=1;rounded=0;whiteSpace=wrap;html=1;fontSize=18;" parent="1" vertex="1">
                    <mxGeometry x="2080" y="1040" width="200" height="40" as="geometry"/>
                </mxCell>
                <mxCell id="551" value="5-4-3-2-1-6" style="shape=ext;double=1;rounded=0;whiteSpace=wrap;html=1;fontSize=18;" parent="1" vertex="1">
                    <mxGeometry x="2080" y="1080" width="200" height="40" as="geometry"/>
                </mxCell>
                <mxCell id="552" value="2-1-6-5-4-3" style="shape=ext;double=1;rounded=0;whiteSpace=wrap;html=1;fontSize=18;" parent="1" vertex="1">
                    <mxGeometry x="2080" y="1197" width="200" height="40" as="geometry"/>
                </mxCell>
                <mxCell id="553" value="4-3-2-1-6-5" style="shape=ext;double=1;rounded=0;whiteSpace=wrap;html=1;fontSize=18;" parent="1" vertex="1">
                    <mxGeometry x="2080" y="1120" width="200" height="40" as="geometry"/>
                </mxCell>
                <mxCell id="554" value="1-6-5-4-3-2" style="shape=ext;double=1;rounded=0;whiteSpace=wrap;html=1;fontSize=18;" parent="1" vertex="1">
                    <mxGeometry x="2080" y="1237" width="200" height="40" as="geometry"/>
                </mxCell>
                <mxCell id="555" value="3-2-1-6-5-4" style="shape=ext;double=1;rounded=0;whiteSpace=wrap;html=1;fontSize=18;" parent="1" vertex="1">
                    <mxGeometry x="2080" y="1157" width="200" height="40" as="geometry"/>
                </mxCell>
                <mxCell id="556" value="6-5-4-3-2-1" style="shape=ext;double=1;rounded=0;whiteSpace=wrap;html=1;fontSize=18;" parent="1" vertex="1">
                    <mxGeometry x="2080" y="1320" width="200" height="40" as="geometry"/>
                </mxCell>
                <mxCell id="557" value="5-4-3-2-1-6" style="shape=ext;double=1;rounded=0;whiteSpace=wrap;html=1;fontSize=18;" parent="1" vertex="1">
                    <mxGeometry x="2080" y="1360" width="200" height="40" as="geometry"/>
                </mxCell>
                <mxCell id="558" value="2-1-6-5-4-3" style="shape=ext;double=1;rounded=0;whiteSpace=wrap;html=1;fontSize=18;" parent="1" vertex="1">
                    <mxGeometry x="2080" y="1477" width="200" height="40" as="geometry"/>
                </mxCell>
                <mxCell id="559" value="4-3-2-1-6-5" style="shape=ext;double=1;rounded=0;whiteSpace=wrap;html=1;fontSize=18;" parent="1" vertex="1">
                    <mxGeometry x="2080" y="1400" width="200" height="40" as="geometry"/>
                </mxCell>
                <mxCell id="560" value="1-6-5-4-3-2" style="shape=ext;double=1;rounded=0;whiteSpace=wrap;html=1;fontSize=18;" parent="1" vertex="1">
                    <mxGeometry x="2080" y="1517" width="200" height="40" as="geometry"/>
                </mxCell>
                <mxCell id="561" value="3-2-1-6-5-4" style="shape=ext;double=1;rounded=0;whiteSpace=wrap;html=1;fontSize=18;" parent="1" vertex="1">
                    <mxGeometry x="2080" y="1437" width="200" height="40" as="geometry"/>
                </mxCell>
                <mxCell id="562" value="6-5-4-3-2-1" style="shape=ext;double=1;rounded=0;whiteSpace=wrap;html=1;fontSize=18;" parent="1" vertex="1">
                    <mxGeometry x="2080" y="1600" width="200" height="40" as="geometry"/>
                </mxCell>
                <mxCell id="563" value="5-4-3-2-1-6" style="shape=ext;double=1;rounded=0;whiteSpace=wrap;html=1;fontSize=18;" parent="1" vertex="1">
                    <mxGeometry x="2080" y="1640" width="200" height="40" as="geometry"/>
                </mxCell>
                <mxCell id="564" value="2-1-6-5-4-3" style="shape=ext;double=1;rounded=0;whiteSpace=wrap;html=1;fontSize=18;" parent="1" vertex="1">
                    <mxGeometry x="2080" y="1757" width="200" height="40" as="geometry"/>
                </mxCell>
                <mxCell id="565" value="4-3-2-1-6-5" style="shape=ext;double=1;rounded=0;whiteSpace=wrap;html=1;fontSize=18;" parent="1" vertex="1">
                    <mxGeometry x="2080" y="1680" width="200" height="40" as="geometry"/>
                </mxCell>
                <mxCell id="566" value="1-6-5-4-3-2" style="shape=ext;double=1;rounded=0;whiteSpace=wrap;html=1;fontSize=18;" parent="1" vertex="1">
                    <mxGeometry x="2080" y="1797" width="200" height="40" as="geometry"/>
                </mxCell>
                <mxCell id="567" value="3-2-1-6-5-4" style="shape=ext;double=1;rounded=0;whiteSpace=wrap;html=1;fontSize=18;" parent="1" vertex="1">
                    <mxGeometry x="2080" y="1717" width="200" height="40" as="geometry"/>
                </mxCell>
                <mxCell id="571" value="rrb, pb, rrb, rrb" style="shape=ext;double=1;rounded=0;whiteSpace=wrap;html=1;fontSize=18;" parent="1" vertex="1">
                    <mxGeometry x="1880" y="1717" width="200" height="40" as="geometry"/>
                </mxCell>
                <mxCell id="572" value="4" style="shape=ext;double=1;rounded=0;whiteSpace=wrap;html=1;fontSize=18;" parent="1" vertex="1">
                    <mxGeometry x="1760" y="1719" width="120" height="40" as="geometry"/>
                </mxCell>
                <mxCell id="574" value="&lt;font style=&quot;font-size: 18px;&quot;&gt;Stack_b&lt;/font&gt;" style="shape=ext;double=1;rounded=0;whiteSpace=wrap;html=1;" parent="1" vertex="1">
                    <mxGeometry x="2560" y="320" width="120" height="80" as="geometry"/>
                </mxCell>
                <mxCell id="575" value="&lt;font style=&quot;font-size: 18px;&quot;&gt;Stack_a&lt;/font&gt;" style="shape=ext;double=1;rounded=0;whiteSpace=wrap;html=1;" parent="1" vertex="1">
                    <mxGeometry x="2360" y="320" width="120" height="80" as="geometry"/>
                </mxCell>
                <mxCell id="576" value="&lt;font style=&quot;font-size: 18px;&quot;&gt;options&lt;br&gt;for push to b&lt;br&gt;&lt;/font&gt;" style="shape=ext;double=1;rounded=0;whiteSpace=wrap;html=1;" parent="1" vertex="1">
                    <mxGeometry x="2760" y="320" width="120" height="80" as="geometry"/>
                </mxCell>
                <mxCell id="577" value="&lt;font style=&quot;font-size: 18px;&quot;&gt;max operations&lt;br&gt;&lt;/font&gt;" style="shape=ext;double=1;rounded=0;whiteSpace=wrap;html=1;" parent="1" vertex="1">
                    <mxGeometry x="2880" y="320" width="120" height="80" as="geometry"/>
                </mxCell>
                <mxCell id="578" value="&lt;font style=&quot;font-size: 18px;&quot;&gt;neccessarry&lt;br&gt;operations&lt;/font&gt;" style="shape=ext;double=1;rounded=0;whiteSpace=wrap;html=1;" parent="1" vertex="1">
                    <mxGeometry x="3000" y="320" width="200" height="80" as="geometry"/>
                </mxCell>
                <mxCell id="579" value="&lt;span style=&quot;font-size: 18px;&quot;&gt;end state&lt;/span&gt;" style="shape=ext;double=1;rounded=0;whiteSpace=wrap;html=1;" parent="1" vertex="1">
                    <mxGeometry x="3200" y="320" width="200" height="80" as="geometry"/>
                </mxCell>
                <mxCell id="580" value="2" style="shape=ext;double=1;rounded=0;whiteSpace=wrap;html=1;fontSize=18;" parent="1" vertex="1">
                    <mxGeometry x="2560" y="480" width="120" height="40" as="geometry"/>
                </mxCell>
                <mxCell id="581" value="5" style="shape=ext;double=1;rounded=0;whiteSpace=wrap;html=1;fontSize=18;" parent="1" vertex="1">
                    <mxGeometry x="2560" y="600" width="120" height="40" as="geometry"/>
                </mxCell>
                <mxCell id="582" value="1" style="shape=ext;double=1;rounded=0;whiteSpace=wrap;html=1;fontSize=18;" parent="1" vertex="1">
                    <mxGeometry x="2560" y="520" width="120" height="40" as="geometry"/>
                </mxCell>
                <mxCell id="583" value="6" style="shape=ext;double=1;rounded=0;whiteSpace=wrap;html=1;fontSize=18;" parent="1" vertex="1">
                    <mxGeometry x="2560" y="560" width="120" height="40" as="geometry"/>
                </mxCell>
                <mxCell id="584" value="4" style="shape=ext;double=1;rounded=0;whiteSpace=wrap;html=1;fontSize=18;" parent="1" vertex="1">
                    <mxGeometry x="2560" y="640" width="120" height="40" as="geometry"/>
                </mxCell>
                <mxCell id="585" value="3" style="shape=ext;double=1;rounded=0;whiteSpace=wrap;html=1;fontSize=18;" parent="1" vertex="1">
                    <mxGeometry x="2360" y="640" width="120" height="40" as="geometry"/>
                </mxCell>
                <mxCell id="586" value="3_last" style="shape=ext;double=1;rounded=0;whiteSpace=wrap;html=1;fontSize=18;" parent="1" vertex="1">
                    <mxGeometry x="2760" y="480" width="120" height="40" as="geometry"/>
                </mxCell>
                <mxCell id="587" value="2" style="shape=ext;double=1;rounded=0;whiteSpace=wrap;html=1;fontSize=18;" parent="1" vertex="1">
                    <mxGeometry x="2880" y="480" width="120" height="40" as="geometry"/>
                </mxCell>
                <mxCell id="588" value="3_five" style="shape=ext;double=1;rounded=0;whiteSpace=wrap;html=1;fontSize=18;" parent="1" vertex="1">
                    <mxGeometry x="2760" y="520" width="120" height="40" as="geometry"/>
                </mxCell>
                <mxCell id="589" value="3" style="shape=ext;double=1;rounded=0;whiteSpace=wrap;html=1;fontSize=18;" parent="1" vertex="1">
                    <mxGeometry x="2880" y="520" width="120" height="40" as="geometry"/>
                </mxCell>
                <mxCell id="590" value="3_second" style="shape=ext;double=1;rounded=0;whiteSpace=wrap;html=1;fontSize=18;" parent="1" vertex="1">
                    <mxGeometry x="2760" y="637" width="120" height="40" as="geometry"/>
                </mxCell>
                <mxCell id="591" value="2" style="shape=ext;double=1;rounded=0;whiteSpace=wrap;html=1;fontSize=18;" parent="1" vertex="1">
                    <mxGeometry x="2880" y="637" width="120" height="40" as="geometry"/>
                </mxCell>
                <mxCell id="592" value="pb, rb" style="shape=ext;double=1;rounded=0;whiteSpace=wrap;html=1;fontSize=18;" parent="1" vertex="1">
                    <mxGeometry x="3000" y="480" width="200" height="40" as="geometry"/>
                </mxCell>
                <mxCell id="593" value="4-5-6-1-2-3" style="shape=ext;double=1;rounded=0;whiteSpace=wrap;html=1;fontSize=18;" parent="1" vertex="1">
                    <mxGeometry x="3200" y="480" width="200" height="40" as="geometry"/>
                </mxCell>
                <mxCell id="594" value="pb, rb, rb" style="shape=ext;double=1;rounded=0;whiteSpace=wrap;html=1;fontSize=18;" parent="1" vertex="1">
                    <mxGeometry x="3000" y="520" width="200" height="40" as="geometry"/>
                </mxCell>
                <mxCell id="595" value="1-6-5-4-3-2" style="shape=ext;double=1;rounded=0;whiteSpace=wrap;html=1;fontSize=18;" parent="1" vertex="1">
                    <mxGeometry x="3200" y="520" width="200" height="40" as="geometry"/>
                </mxCell>
                <mxCell id="596" value="pb, rb" style="shape=ext;double=1;rounded=0;whiteSpace=wrap;html=1;fontSize=18;" parent="1" vertex="1">
                    <mxGeometry x="3000" y="637" width="200" height="40" as="geometry"/>
                </mxCell>
                <mxCell id="597" value="4-3-2-1-6-5" style="shape=ext;double=1;rounded=0;whiteSpace=wrap;html=1;fontSize=18;" parent="1" vertex="1">
                    <mxGeometry x="3200" y="637" width="200" height="40" as="geometry"/>
                </mxCell>
                <mxCell id="598" value="3_fourth" style="shape=ext;double=1;rounded=0;whiteSpace=wrap;html=1;fontSize=18;" parent="1" vertex="1">
                    <mxGeometry x="2760" y="557" width="120" height="40" as="geometry"/>
                </mxCell>
                <mxCell id="599" value="4" style="shape=ext;double=1;rounded=0;whiteSpace=wrap;html=1;fontSize=18;" parent="1" vertex="1">
                    <mxGeometry x="2880" y="557" width="120" height="40" as="geometry"/>
                </mxCell>
                <mxCell id="600" value="6-5-4-3-2-1" style="shape=ext;double=1;rounded=0;whiteSpace=wrap;html=1;fontSize=18;" parent="1" vertex="1">
                    <mxGeometry x="3200" y="560" width="200" height="40" as="geometry"/>
                </mxCell>
                <mxCell id="601" value="3_first" style="shape=ext;double=1;rounded=0;whiteSpace=wrap;html=1;fontSize=18;" parent="1" vertex="1">
                    <mxGeometry x="2760" y="677" width="120" height="40" as="geometry"/>
                </mxCell>
                <mxCell id="603" value="pb" style="shape=ext;double=1;rounded=0;whiteSpace=wrap;html=1;fontSize=18;" parent="1" vertex="1">
                    <mxGeometry x="3000" y="677" width="200" height="40" as="geometry"/>
                </mxCell>
                <mxCell id="604" value="3-2-1-6-5-4" style="shape=ext;double=1;rounded=0;whiteSpace=wrap;html=1;fontSize=18;" parent="1" vertex="1">
                    <mxGeometry x="3200" y="677" width="200" height="40" as="geometry"/>
                </mxCell>
                <mxCell id="605" value="3_third" style="shape=ext;double=1;rounded=0;whiteSpace=wrap;html=1;fontSize=18;" parent="1" vertex="1">
                    <mxGeometry x="2760" y="597" width="120" height="40" as="geometry"/>
                </mxCell>
                <mxCell id="606" value="3" style="shape=ext;double=1;rounded=0;whiteSpace=wrap;html=1;fontSize=18;" parent="1" vertex="1">
                    <mxGeometry x="2880" y="597" width="120" height="40" as="geometry"/>
                </mxCell>
                <mxCell id="607" value="5-4-3-2-1-6" style="shape=ext;double=1;rounded=0;whiteSpace=wrap;html=1;fontSize=18;" parent="1" vertex="1">
                    <mxGeometry x="3200" y="597" width="200" height="40" as="geometry"/>
                </mxCell>
                <mxCell id="608" value="pb, rrb, rrb" style="shape=ext;double=1;rounded=0;whiteSpace=wrap;html=1;fontSize=18;" parent="1" vertex="1">
                    <mxGeometry x="3000" y="597" width="200" height="40" as="geometry"/>
                </mxCell>
                <mxCell id="610" value="1" style="shape=ext;double=1;rounded=0;whiteSpace=wrap;html=1;fontSize=18;" parent="1" vertex="1">
                    <mxGeometry x="2880" y="677" width="120" height="40" as="geometry"/>
                </mxCell>
                <mxCell id="611" value="pb, rb, rb, rb" style="shape=ext;double=1;rounded=0;whiteSpace=wrap;html=1;fontSize=18;" parent="1" vertex="1">
                    <mxGeometry x="3000" y="560" width="200" height="40" as="geometry"/>
                </mxCell>
                <mxCell id="612" value="4" style="shape=ext;double=1;rounded=0;whiteSpace=wrap;html=1;fontSize=18;" parent="1" vertex="1">
                    <mxGeometry x="2560" y="760" width="120" height="40" as="geometry"/>
                </mxCell>
                <mxCell id="613" value="6" style="shape=ext;double=1;rounded=0;whiteSpace=wrap;html=1;fontSize=18;" parent="1" vertex="1">
                    <mxGeometry x="2560" y="880" width="120" height="40" as="geometry"/>
                </mxCell>
                <mxCell id="614" value="2" style="shape=ext;double=1;rounded=0;whiteSpace=wrap;html=1;fontSize=18;" parent="1" vertex="1">
                    <mxGeometry x="2560" y="800" width="120" height="40" as="geometry"/>
                </mxCell>
                <mxCell id="615" value="1" style="shape=ext;double=1;rounded=0;whiteSpace=wrap;html=1;fontSize=18;" parent="1" vertex="1">
                    <mxGeometry x="2560" y="840" width="120" height="40" as="geometry"/>
                </mxCell>
                <mxCell id="616" value="5" style="shape=ext;double=1;rounded=0;whiteSpace=wrap;html=1;fontSize=18;" parent="1" vertex="1">
                    <mxGeometry x="2560" y="920" width="120" height="40" as="geometry"/>
                </mxCell>
                <mxCell id="617" value="3" style="shape=ext;double=1;rounded=0;whiteSpace=wrap;html=1;fontSize=18;" parent="1" vertex="1">
                    <mxGeometry x="2360" y="920" width="120" height="40" as="geometry"/>
                </mxCell>
                <mxCell id="618" value="3_last" style="shape=ext;double=1;rounded=0;whiteSpace=wrap;html=1;fontSize=18;" parent="1" vertex="1">
                    <mxGeometry x="2760" y="760" width="120" height="40" as="geometry"/>
                </mxCell>
                <mxCell id="619" value="3" style="shape=ext;double=1;rounded=0;whiteSpace=wrap;html=1;fontSize=18;" parent="1" vertex="1">
                    <mxGeometry x="2880" y="760" width="120" height="40" as="geometry"/>
                </mxCell>
                <mxCell id="620" value="3_five" style="shape=ext;double=1;rounded=0;whiteSpace=wrap;html=1;fontSize=18;" parent="1" vertex="1">
                    <mxGeometry x="2760" y="800" width="120" height="40" as="geometry"/>
                </mxCell>
                <mxCell id="621" value="3" style="shape=ext;double=1;rounded=0;whiteSpace=wrap;html=1;fontSize=18;" parent="1" vertex="1">
                    <mxGeometry x="2880" y="800" width="120" height="40" as="geometry"/>
                </mxCell>
                <mxCell id="622" value="3_second" style="shape=ext;double=1;rounded=0;whiteSpace=wrap;html=1;fontSize=18;" parent="1" vertex="1">
                    <mxGeometry x="2760" y="917" width="120" height="40" as="geometry"/>
                </mxCell>
                <mxCell id="623" value="2" style="shape=ext;double=1;rounded=0;whiteSpace=wrap;html=1;fontSize=18;" parent="1" vertex="1">
                    <mxGeometry x="2880" y="917" width="120" height="40" as="geometry"/>
                </mxCell>
                <mxCell id="624" value="rb, pb, rb" style="shape=ext;double=1;rounded=0;whiteSpace=wrap;html=1;fontSize=18;" parent="1" vertex="1">
                    <mxGeometry x="3000" y="760" width="200" height="40" as="geometry"/>
                </mxCell>
                <mxCell id="625" value="4-5-6-1-2-3" style="shape=ext;double=1;rounded=0;whiteSpace=wrap;html=1;fontSize=18;" parent="1" vertex="1">
                    <mxGeometry x="3200" y="760" width="200" height="40" as="geometry"/>
                </mxCell>
                <mxCell id="626" value="rbm pb, rb, rb" style="shape=ext;double=1;rounded=0;whiteSpace=wrap;html=1;fontSize=18;" parent="1" vertex="1">
                    <mxGeometry x="3000" y="800" width="200" height="40" as="geometry"/>
                </mxCell>
                <mxCell id="627" value="1-6-5-4-3-2" style="shape=ext;double=1;rounded=0;whiteSpace=wrap;html=1;fontSize=18;" parent="1" vertex="1">
                    <mxGeometry x="3200" y="800" width="200" height="40" as="geometry"/>
                </mxCell>
                <mxCell id="628" value="pb, sb" style="shape=ext;double=1;rounded=0;whiteSpace=wrap;html=1;fontSize=18;" parent="1" vertex="1">
                    <mxGeometry x="3000" y="917" width="200" height="40" as="geometry"/>
                </mxCell>
                <mxCell id="629" value="4-3-2-1-6-5" style="shape=ext;double=1;rounded=0;whiteSpace=wrap;html=1;fontSize=18;" parent="1" vertex="1">
                    <mxGeometry x="3200" y="917" width="200" height="40" as="geometry"/>
                </mxCell>
                <mxCell id="630" value="3_fourth" style="shape=ext;double=1;rounded=0;whiteSpace=wrap;html=1;fontSize=18;" parent="1" vertex="1">
                    <mxGeometry x="2760" y="837" width="120" height="40" as="geometry"/>
                </mxCell>
                <mxCell id="631" value="4" style="shape=ext;double=1;rounded=0;whiteSpace=wrap;html=1;fontSize=18;" parent="1" vertex="1">
                    <mxGeometry x="2880" y="837" width="120" height="40" as="geometry"/>
                </mxCell>
                <mxCell id="632" value="6-5-4-3-2-1" style="shape=ext;double=1;rounded=0;whiteSpace=wrap;html=1;fontSize=18;" parent="1" vertex="1">
                    <mxGeometry x="3200" y="840" width="200" height="40" as="geometry"/>
                </mxCell>
                <mxCell id="633" value="3_first" style="shape=ext;double=1;rounded=0;whiteSpace=wrap;html=1;fontSize=18;" parent="1" vertex="1">
                    <mxGeometry x="2760" y="957" width="120" height="40" as="geometry"/>
                </mxCell>
                <mxCell id="634" value="rb, pb" style="shape=ext;double=1;rounded=0;whiteSpace=wrap;html=1;fontSize=18;" parent="1" vertex="1">
                    <mxGeometry x="3000" y="957" width="200" height="40" as="geometry"/>
                </mxCell>
                <mxCell id="635" value="3-2-1-6-5-4" style="shape=ext;double=1;rounded=0;whiteSpace=wrap;html=1;fontSize=18;" parent="1" vertex="1">
                    <mxGeometry x="3200" y="957" width="200" height="40" as="geometry"/>
                </mxCell>
                <mxCell id="636" value="3_third" style="shape=ext;double=1;rounded=0;whiteSpace=wrap;html=1;fontSize=18;" parent="1" vertex="1">
                    <mxGeometry x="2760" y="877" width="120" height="40" as="geometry"/>
                </mxCell>
                <mxCell id="637" value="3" style="shape=ext;double=1;rounded=0;whiteSpace=wrap;html=1;fontSize=18;" parent="1" vertex="1">
                    <mxGeometry x="2880" y="877" width="120" height="40" as="geometry"/>
                </mxCell>
                <mxCell id="638" value="5-4-3-2-1-6" style="shape=ext;double=1;rounded=0;whiteSpace=wrap;html=1;fontSize=18;" parent="1" vertex="1">
                    <mxGeometry x="3200" y="877" width="200" height="40" as="geometry"/>
                </mxCell>
                <mxCell id="639" value="pb, sb, rrb" style="shape=ext;double=1;rounded=0;whiteSpace=wrap;html=1;fontSize=18;" parent="1" vertex="1">
                    <mxGeometry x="3000" y="877" width="200" height="40" as="geometry"/>
                </mxCell>
                <mxCell id="640" value="2" style="shape=ext;double=1;rounded=0;whiteSpace=wrap;html=1;fontSize=18;" parent="1" vertex="1">
                    <mxGeometry x="2880" y="957" width="120" height="40" as="geometry"/>
                </mxCell>
                <mxCell id="641" value="pb, sb, rrb, rrb" style="shape=ext;double=1;rounded=0;whiteSpace=wrap;html=1;fontSize=18;" parent="1" vertex="1">
                    <mxGeometry x="3000" y="840" width="200" height="40" as="geometry"/>
                </mxCell>
                <mxCell id="642" value="Conclusion:" style="shape=ext;double=1;rounded=0;whiteSpace=wrap;html=1;fontSize=18;" parent="1" vertex="1">
                    <mxGeometry x="2520" y="1100" width="200" height="40" as="geometry"/>
                </mxCell>
                <mxCell id="643" value="put number in top of stack_b is the best" style="shape=ext;double=1;rounded=0;whiteSpace=wrap;html=1;fontSize=18;" parent="1" vertex="1">
                    <mxGeometry x="2400" y="1140" width="440" height="40" as="geometry"/>
                </mxCell>
                <mxCell id="644" value="number must always on top of next smaller num&lt;br&gt;or if 1 on highest num" style="shape=ext;double=1;rounded=0;whiteSpace=wrap;html=1;fontSize=18;" parent="1" vertex="1">
                    <mxGeometry x="2400" y="1175" width="440" height="105" as="geometry"/>
                </mxCell>
                <mxCell id="645" value="&lt;blockquote style=&quot;margin: 0 0 0 40px; border: none; padding: 0px;&quot;&gt;while (counter &amp;gt; 0)&lt;br&gt;{&lt;/blockquote&gt;&lt;blockquote style=&quot;margin: 0 0 0 40px; border: none; padding: 0px;&quot;&gt;rotation_counter++;&lt;br&gt;counter--;&lt;br&gt;}&lt;/blockquote&gt;&lt;blockquote style=&quot;margin: 0 0 0 40px; border: none; padding: 0px;&quot;&gt;while (counter&amp;nbsp; 0)&lt;/blockquote&gt;&lt;blockquote style=&quot;margin: 0 0 0 40px; border: none; padding: 0px;&quot;&gt;{&lt;/blockquote&gt;&lt;blockquote style=&quot;margin: 0 0 0 40px; border: none; padding: 0px;&quot;&gt;rotation_counter--;&lt;/blockquote&gt;&lt;blockquote style=&quot;margin: 0 0 0 40px; border: none; padding: 0px;&quot;&gt;counter++;&lt;/blockquote&gt;&lt;blockquote style=&quot;margin: 0 0 0 40px; border: none; padding: 0px;&quot;&gt;}&lt;/blockquote&gt;&lt;blockquote style=&quot;margin: 0 0 0 40px; border: none; padding: 0px;&quot;&gt;return (counter)&lt;/blockquote&gt;&lt;blockquote style=&quot;margin: 0 0 0 40px; border: none; padding: 0px;&quot;&gt;&lt;br&gt;&lt;/blockquote&gt;&lt;blockquote style=&quot;margin: 0 0 0 40px; border: none; padding: 0px;&quot;&gt;if rotation_counter positiv rb until counter 0;&lt;/blockquote&gt;&lt;blockquote style=&quot;margin: 0 0 0 40px; border: none; padding: 0px;&quot;&gt;if rotation_counter negativ rrb until counter 0;&lt;/blockquote&gt;&lt;blockquote style=&quot;margin: 0 0 0 40px; border: none; padding: 0px;&quot;&gt;dann pb&lt;/blockquote&gt;&lt;blockquote style=&quot;margin: 0 0 0 40px; border: none; padding: 0px;&quot;&gt;&lt;br&gt;&lt;/blockquote&gt;" style="shape=ext;double=1;rounded=0;whiteSpace=wrap;html=1;fontSize=18;align=left;" parent="1" vertex="1">
                    <mxGeometry x="2400" y="1420" width="440" height="362" as="geometry"/>
                </mxCell>
                <mxCell id="646" value="rotation_counter = 0;&lt;br&gt;counter = position_of(num + 1 (or highest num if num is 1)) - 1;" style="shape=ext;double=1;rounded=0;whiteSpace=wrap;html=1;fontSize=18;" parent="1" vertex="1">
                    <mxGeometry x="2360" y="1280" width="520" height="140" as="geometry"/>
                </mxCell>
                <mxCell id="650" value="if the stack is uneven :&lt;br&gt;if should return the number of the position minus 1, but if the position is not after the half. (if position is 4 and num is 5for example and the stack 1 6 4 3 2, it should return 2, if the stack is 6 4 3 2 1, it should return 1, when the stack is 4 3 2 1 6, it should return 0.&lt;br&gt;but after the half it should return the stack_size minus the position and that * - 1&lt;br&gt;if the stack is 2 1 6 4 3, it should return -2&lt;br&gt;if 3 2 1 6 4 it should return - 1&lt;br&gt;&lt;br&gt;if the stack is even:&lt;br&gt;same logic as above, but the half is exatly the half&lt;br&gt;this logic should be flexible for a variable size of the stack&lt;br&gt;" style="shape=ext;double=1;rounded=0;whiteSpace=wrap;html=1;fontSize=18;" parent="1" vertex="1">
                    <mxGeometry x="-570" y="900" width="420" height="350" as="geometry"/>
                </mxCell>
                <mxCell id="651" value="" style="shape=ext;double=1;rounded=0;whiteSpace=wrap;html=1;fontSize=18;" parent="1" vertex="1">
                    <mxGeometry x="2360" y="1782" width="520" height="140" as="geometry"/>
                </mxCell>
                <mxCell id="652" value="1" style="shape=ext;double=1;rounded=0;whiteSpace=wrap;html=1;fontSize=18;" parent="1" vertex="1">
                    <mxGeometry x="1158" y="480" width="50" height="40" as="geometry"/>
                </mxCell>
                <mxCell id="653" value="1" style="shape=ext;double=1;rounded=0;whiteSpace=wrap;html=1;fontSize=18;" parent="1" vertex="1">
                    <mxGeometry x="1159" y="520" width="50" height="40" as="geometry"/>
                </mxCell>
                <mxCell id="654" value="1" style="shape=ext;double=1;rounded=0;whiteSpace=wrap;html=1;fontSize=18;" parent="1" vertex="1">
                    <mxGeometry x="1159" y="560" width="50" height="40" as="geometry"/>
                </mxCell>
                <mxCell id="655" value="1" style="shape=ext;double=1;rounded=0;whiteSpace=wrap;html=1;fontSize=18;" parent="1" vertex="1">
                    <mxGeometry x="1160" y="600" width="50" height="40" as="geometry"/>
                </mxCell>
                <mxCell id="656" value="-5" style="shape=ext;double=1;rounded=0;whiteSpace=wrap;html=1;fontSize=18;" parent="1" vertex="1">
                    <mxGeometry x="1160" y="637" width="50" height="43" as="geometry"/>
                </mxCell>
                <mxCell id="657" value="1" style="shape=ext;double=1;rounded=0;whiteSpace=wrap;html=1;fontSize=18;" parent="1" vertex="1">
                    <mxGeometry x="1159" y="680" width="50" height="40" as="geometry"/>
                </mxCell>
                <mxCell id="658" value="best num (stack_a, stack_b,&amp;nbsp; num, cur_op)&lt;br&gt;cur_op_negativ, cur_op_a_negativ&lt;br&gt;best_num_a&lt;br&gt;best_num_b" style="shape=ext;double=1;rounded=0;whiteSpace=wrap;html=1;fontSize=18;" parent="1" vertex="1">
                    <mxGeometry x="-840" y="90" width="1119" height="390" as="geometry"/>
                </mxCell>
                <mxCell id="659" value="&lt;font style=&quot;font-size: 72px;&quot;&gt;push_swap logic&lt;/font&gt;" style="shape=ext;double=1;rounded=0;whiteSpace=wrap;html=1;" parent="1" vertex="1">
                    <mxGeometry x="-1678" y="44" width="796" height="139.53778429933968" as="geometry"/>
                </mxCell>
                <mxCell id="660" value="&lt;font style=&quot;font-size: 24px;&quot;&gt;check_error&lt;/font&gt;" style="shape=ext;double=1;rounded=0;whiteSpace=wrap;html=1;fillColor=red;" parent="1" vertex="1">
                    <mxGeometry x="-1616.4470588235295" y="290.9809244314013" width="655.529411764706" height="58.7527512839325" as="geometry"/>
                </mxCell>
                <mxCell id="661" value="&lt;font style=&quot;font-size: 24px;&quot;&gt;fill stack a with args&lt;/font&gt;" style="shape=ext;double=1;rounded=0;whiteSpace=wrap;html=1;fillColor=#CC00CC;" parent="1" vertex="1">
                    <mxGeometry x="-1616.4470588235295" y="525.9919295671314" width="655.529411764706" height="60.95597945707997" as="geometry"/>
                </mxCell>
                <mxCell id="663" value="&lt;font style=&quot;font-size: 24px;&quot;&gt;sorting algorithm&lt;/font&gt;" style="shape=ext;double=1;rounded=0;whiteSpace=wrap;html=1;fillColor=blue;" parent="1" vertex="1">
                    <mxGeometry x="-1616.4470588235295" y="616.3242846661775" width="655.529411764706" height="58.7527512839325" as="geometry"/>
                </mxCell>
                <mxCell id="664" value="&lt;font style=&quot;font-size: 24px;&quot;&gt;print stacks&lt;/font&gt;" style="rounded=0;whiteSpace=wrap;html=1;fillColor=#CC00CC;" parent="1" vertex="1">
                    <mxGeometry x="-1616.4470588235295" y="971.04402054292" width="655.529411764706" height="60.95597945707997" as="geometry"/>
                </mxCell>
                <mxCell id="667" value="&lt;font style=&quot;font-size: 18px;&quot;&gt;check argument error&lt;/font&gt;" style="shape=ext;double=1;rounded=0;whiteSpace=wrap;html=1;fillColor=#663300;" parent="1" vertex="1">
                    <mxGeometry x="-1541.5294117647059" y="349.7336757153338" width="505.6941176470589" height="29.37637564196625" as="geometry"/>
                </mxCell>
                <mxCell id="668" value="&lt;font style=&quot;font-size: 18px;&quot;&gt;check stack error&lt;/font&gt;" style="shape=ext;double=1;rounded=0;whiteSpace=wrap;html=1;fillColor=#009999;" parent="1" vertex="1">
                    <mxGeometry x="-1541.5294117647059" y="467.23917828319884" width="505.6941176470589" height="29.37637564196625" as="geometry"/>
                </mxCell>
                <mxCell id="669" value="&lt;font style=&quot;font-size: 14px;&quot;&gt;check for duplicates&lt;/font&gt;" style="shape=ext;double=1;rounded=0;whiteSpace=wrap;html=1;fillColor=#190D00;" parent="1" vertex="1">
                    <mxGeometry x="-1372.964705882353" y="379.11005135730005" width="168.56470588235294" height="29.37637564196625" as="geometry"/>
                </mxCell>
                <mxCell id="670" value="&lt;font style=&quot;font-size: 14px;&quot;&gt;check if arg is in int range&lt;/font&gt;" style="shape=ext;double=1;rounded=0;whiteSpace=wrap;html=1;fillColor=#190D00;" parent="1" vertex="1">
                    <mxGeometry x="-1372.964705882353" y="408.4864269992663" width="168.56470588235294" height="29.37637564196625" as="geometry"/>
                </mxCell>
                <mxCell id="671" value="&lt;font style=&quot;font-size: 14px;&quot;&gt;check if num is digit&lt;/font&gt;" style="shape=ext;double=1;rounded=0;whiteSpace=wrap;html=1;fillColor=#190D00;" parent="1" vertex="1">
                    <mxGeometry x="-1372.964705882353" y="437.8628026412326" width="168.56470588235294" height="29.37637564196625" as="geometry"/>
                </mxCell>
                <mxCell id="672" value="&lt;font style=&quot;font-size: 14px;&quot;&gt;check if stacks are empty&lt;/font&gt;" style="shape=ext;double=1;rounded=0;whiteSpace=wrap;html=1;fillColor=#190D00;" parent="1" vertex="1">
                    <mxGeometry x="-1372.964705882353" y="496.61555392516505" width="168.56470588235294" height="29.37637564196625" as="geometry"/>
                </mxCell>
                <mxCell id="673" value="&lt;span style=&quot;font-size: 18px;&quot;&gt;push new node to stack a&lt;/span&gt;" style="shape=ext;double=1;rounded=0;whiteSpace=wrap;html=1;fillColor=#00994D;" parent="1" vertex="1">
                    <mxGeometry x="-1541.5294117647059" y="586.9479090242113" width="505.6941176470589" height="29.37637564196625" as="geometry"/>
                </mxCell>
                <mxCell id="675" value="&lt;font style=&quot;font-size: 18px;&quot;&gt;push 2 nodes to b&lt;/font&gt;" style="shape=ext;double=1;rounded=0;whiteSpace=wrap;html=1;fillColor=#663300;" parent="1" vertex="1">
                    <mxGeometry x="-1541.5294117647059" y="677.2802641232576" width="505.6941176470589" height="29.37637564196625" as="geometry"/>
                </mxCell>
                <mxCell id="676" value="&lt;font style=&quot;font-size: 18px;&quot;&gt;iterate stack a until stack a empty&lt;/font&gt;" style="shape=ext;double=1;rounded=0;whiteSpace=wrap;html=1;fillColor=#663300;" parent="1" vertex="1">
                    <mxGeometry x="-1541.5294117647059" y="706.6566397652238" width="505.6941176470589" height="29.37637564196625" as="geometry"/>
                </mxCell>
                <mxCell id="677" value="&lt;span style=&quot;font-size: 14px;&quot;&gt;find best num&lt;/span&gt;" style="shape=ext;double=1;rounded=0;whiteSpace=wrap;html=1;" parent="1" vertex="1">
                    <mxGeometry x="-1382.3294117647058" y="734.5641966250917" width="168.56470588235294" height="29.37637564196625" as="geometry"/>
                </mxCell>
                <mxCell id="679" value="&lt;span style=&quot;font-size: 14px;&quot;&gt;calculate operations&lt;/span&gt;" style="shape=ext;double=1;rounded=0;whiteSpace=wrap;html=1;" parent="1" vertex="1">
                    <mxGeometry x="-1384" y="765.41" width="170.24" height="29.38" as="geometry"/>
                </mxCell>
                <mxCell id="680" value="&lt;span style=&quot;font-size: 14px;&quot;&gt;prepare stacks to push to b&lt;/span&gt;" style="shape=ext;double=1;rounded=0;whiteSpace=wrap;html=1;" parent="1" vertex="1">
                    <mxGeometry x="-1382.3294117647058" y="853.538517975055" width="168.56470588235294" height="29.37637564196625" as="geometry"/>
                </mxCell>
                <mxCell id="681" value="&lt;span style=&quot;font-size: 14px;&quot;&gt;calculate min operations for a&lt;/span&gt;" style="shape=ext;double=1;rounded=0;whiteSpace=wrap;html=1;" parent="1" vertex="1">
                    <mxGeometry x="-1513.4352941176471" y="794.7857666911225" width="191.97647058823532" height="29.37637564196625" as="geometry"/>
                </mxCell>
                <mxCell id="682" value="&lt;span style=&quot;font-size: 14px;&quot;&gt;calculate min operations for a&lt;/span&gt;" style="shape=ext;double=1;rounded=0;whiteSpace=wrap;html=1;" parent="1" vertex="1">
                    <mxGeometry x="-1274.635294117647" y="794.7857666911225" width="191.97647058823532" height="29.37637564196625" as="geometry"/>
                </mxCell>
                <mxCell id="683" value="+" style="shape=ext;double=1;rounded=0;whiteSpace=wrap;html=1;fontSize=14;" parent="1" vertex="1">
                    <mxGeometry x="-1321.4588235294118" y="794.7857666911225" width="46.82352941176471" height="29.37637564196625" as="geometry"/>
                </mxCell>
                <mxCell id="684" value="&lt;span style=&quot;font-size: 14px;&quot;&gt;find best insert position&lt;/span&gt;" style="shape=ext;double=1;rounded=0;whiteSpace=wrap;html=1;" parent="1" vertex="1">
                    <mxGeometry x="-1274.635294117647" y="824.1621423330888" width="191.97647058823532" height="29.37637564196625" as="geometry"/>
                </mxCell>
                <mxCell id="685" value="&lt;span style=&quot;font-size: 14px;&quot;&gt;calculate steps to pull num to top&lt;/span&gt;" style="shape=ext;double=1;rounded=0;whiteSpace=wrap;html=1;" parent="1" vertex="1">
                    <mxGeometry x="-1513.4352941176471" y="821.9589141599413" width="191.97647058823532" height="29.37637564196625" as="geometry"/>
                </mxCell>
                <mxCell id="687" value="&lt;font style=&quot;font-size: 14px;&quot;&gt;push b&lt;/font&gt;" style="shape=ext;double=1;rounded=0;whiteSpace=wrap;html=1;" parent="1" vertex="1">
                    <mxGeometry x="-1382.3294117647058" y="882.9148936170212" width="168.56470588235294" height="29.37637564196625" as="geometry"/>
                </mxCell>
                <mxCell id="692" value="&lt;font style=&quot;font-size: 18px;&quot;&gt;rotate b, highest number to top, lowest bottom&lt;/font&gt;" style="shape=ext;double=1;rounded=0;whiteSpace=wrap;html=1;fillColor=#663300;" parent="1" vertex="1">
                    <mxGeometry x="-1541.5294117647059" y="912.2912692589875" width="505.6941176470589" height="29.37637564196625" as="geometry"/>
                </mxCell>
                <mxCell id="695" value="&lt;font style=&quot;font-size: 18px;&quot;&gt;push to stack a until stack b empty&lt;/font&gt;" style="shape=ext;double=1;rounded=0;whiteSpace=wrap;html=1;fillColor=#663300;" parent="1" vertex="1">
                    <mxGeometry x="-1541.5294117647059" y="941.6676449009537" width="505.6941176470589" height="29.37637564196625" as="geometry"/>
                </mxCell>
                <mxCell id="702" value="&lt;font style=&quot;font-size: 48px;&quot;&gt;Main&lt;/font&gt;" style="shape=ext;double=0;rounded=0;html=1;fillColor=green;strokeColor=#1C291D;" parent="1" vertex="1">
                    <mxGeometry x="-1672.6352941176472" y="185.2259721203228" width="786.635294117647" height="105.7549523110785" as="geometry"/>
                </mxCell>
                <mxCell id="707" value="1" style="shape=ext;double=1;rounded=0;whiteSpace=wrap;html=1;fontSize=18;" vertex="1" parent="1">
                    <mxGeometry x="-202" y="492" width="120" height="40" as="geometry"/>
                </mxCell>
                <mxCell id="708" value="3" style="shape=ext;double=1;rounded=0;whiteSpace=wrap;html=1;fontSize=18;" vertex="1" parent="1">
                    <mxGeometry x="-202" y="611" width="120" height="40" as="geometry"/>
                </mxCell>
                <mxCell id="709" value="2" style="shape=ext;double=1;rounded=0;whiteSpace=wrap;html=1;fontSize=18;" vertex="1" parent="1">
                    <mxGeometry x="-202" y="572" width="120" height="40" as="geometry"/>
                </mxCell>
                <mxCell id="711" value="4" style="shape=ext;double=1;rounded=0;whiteSpace=wrap;html=1;fontSize=18;" vertex="1" parent="1">
                    <mxGeometry x="-202" y="649" width="120" height="40" as="geometry"/>
                </mxCell>
            </root>
        </mxGraphModel>
    </diagram>
</mxfile>